<?xml version="1.0" encoding="utf-8"?>
<!-- Generator: Adobe Illustrator 21.0.2, SVG Export Plug-In . SVG Version: 6.00 Build 0)  -->
<svg version="1.1" id="Layer_1" xmlns:sketch="http://www.bohemiancoding.com/sketch/ns"
	 xmlns="http://www.w3.org/2000/svg" xmlns:xlink="http://www.w3.org/1999/xlink" x="0px" y="0px" viewBox="0 0 84 84"
	 style="enable-background:new 0 0 84 84;" xml:space="preserve">
<style type="text/css">
	.st0{fill:#EEEEEE;}
	.st1{fill:#FFFFFF;}
	.st2{fill:none;stroke:#F2EDED;}
	.st3{fill:#005EB8;}
</style>
<g sketch:type="MSShapeGroup">
	<g id="path-1">
		<path class="st0" d="M41,81.8C19.6,81.8,2.3,64.4,2.3,43v-2C2.3,19.6,19.6,2.3,41,2.3h2c21.4,0,38.8,17.4,38.8,38.8v2
			c0,21.4-17.4,38.8-38.8,38.8H41z"/>
		<path class="st1" d="M43,3.3c20.8,0,37.8,16.9,37.8,37.8v2c0,20.8-16.9,37.8-37.8,37.8h-2C20.2,80.8,3.3,63.8,3.3,43v-2
			C3.3,20.2,20.2,3.3,41,3.3H43 M43,1.3h-2C19.1,1.3,1.3,19,1.3,41v2c0,22,17.8,39.8,39.8,39.8h2C65,82.8,82.8,65,82.8,43v-2
			C82.8,19,65,1.3,43,1.3L43,1.3z"/>
	</g>
</g>
<g>
	<path id="path-1_1_" class="st2" d="M41,1.3h2C65,1.3,82.8,19,82.8,41v2C82.8,65,65,82.8,43,82.8h-2C19.1,82.8,1.3,65,1.3,43v-2
		C1.3,19,19.1,1.3,41,1.3z"/>
</g>
<g>
	<path class="st3" d="M42.9,23.3c-0.9-0.9-2.4-0.9-3.3,0c-0.9,0.9-0.9,2.4,0,3.3L55,41.9c0.9,0.9,2.4,0.9,3.3,0
		c0.9-0.9,0.9-2.4,0-3.3L42.9,23.3z"/>
	<path class="st3" d="M38.3,29.2c-0.8,4.1-2.8,8-5.5,11.1l8.4,8.4c3.1-2.7,7-4.7,11-5.5l0.6-0.1L38.5,28.7L38.3,29.2z"/>
	<path class="st3" d="M31.3,42.1l-5.7,5.7c-1.4,1.4-1.4,3.5,0,4.9l3.3,3.3c1.4,1.4,3.5,1.4,4.9,0l5.7-5.7L31.3,42.1z M32.1,51.1
		c-0.5,0.5-1.2,0.5-1.6,0c-0.5-0.5-0.5-1.2,0-1.6l1.6-1.6c0.5-0.5,1.2-0.5,1.6,0c0.5,0.5,0.5,1.2,0,1.6L32.1,51.1z"/>
	<path class="st3" d="M45.9,50.1l-1.2-1.2c-0.6,0.4-1.3,0.9-1.9,1.4l1.4,1.4c0.5,0.4,0.5,1.2,0,1.6L42.7,55l-2.3-2.3L37.1,56
		l5.2,5.1c0.9,0.9,2.4,0.9,3.3,0c0.9-0.9,0.9-2.4,0-3.3l-1.2-1.2l1.6-1.6C47.3,53.7,47.3,51.5,45.9,50.1z"/>
	<path class="st3" d="M47.8,23.4v2.3c0,0.6,0.5,1.2,1.2,1.2c0.6,0,1.2-0.5,1.2-1.2v-2.3c0-0.6-0.5-1.2-1.2-1.2
		C48.4,22.3,47.8,22.8,47.8,23.4z"/>
	<path class="st3" d="M58.3,31.5h-2.3c-0.6,0-1.2,0.5-1.2,1.2s0.5,1.2,1.2,1.2h2.3c0.6,0,1.2-0.5,1.2-1.2S58.9,31.5,58.3,31.5z"/>
	<path class="st3" d="M54.4,28.9l2.3-2.3c0.5-0.5,0.5-1.2,0-1.6c-0.5-0.5-1.2-0.5-1.6,0l-2.3,2.3c-0.5,0.5-0.5,1.2,0,1.6
		C53.3,29.3,54,29.3,54.4,28.9z"/>
</g>
</svg>
