<svg id="design" xmlns="http://www.w3.org/2000/svg" xmlns:xlink="http://www.w3.org/1999/xlink" viewBox="0 0 100 100"><defs><style>.cls-1{fill:url(#linear-gradient);}.cls-2{fill:url(#linear-gradient-2);}.cls-3{fill:url(#linear-gradient-3);}.cls-4{fill:url(#linear-gradient-4);}.cls-5{fill:url(#linear-gradient-5);}.cls-6{fill:url(#linear-gradient-6);}.cls-7{fill:url(#linear-gradient-7);}.cls-8{fill:url(#linear-gradient-8);}</style><linearGradient id="linear-gradient" x1="50" y1="98.99" x2="50" y2="31.56" gradientUnits="userSpaceOnUse"><stop offset="0" stop-color="#fbb040"/><stop offset="1" stop-color="#ed8b00"/></linearGradient><linearGradient id="linear-gradient-2" x1="50.02" y1="13.15" x2="50.02" y2="1.01" xlink:href="#linear-gradient"/><linearGradient id="linear-gradient-3" x1="34.7" y1="17.31" x2="34.7" y2="3.62" xlink:href="#linear-gradient"/><linearGradient id="linear-gradient-4" x1="65.33" y1="17.27" x2="65.33" y2="3.59" xlink:href="#linear-gradient"/><linearGradient id="linear-gradient-5" x1="22.17" y1="26.21" x2="22.17" y2="13.6" xlink:href="#linear-gradient"/><linearGradient id="linear-gradient-6" x1="77.85" y1="26.17" x2="77.85" y2="13.56" xlink:href="#linear-gradient"/><linearGradient id="linear-gradient-7" x1="85.31" y1="38.31" x2="85.31" y2="29.06" xlink:href="#linear-gradient"/><linearGradient id="linear-gradient-8" x1="14.71" y1="38.32" x2="14.71" y2="29.07" xlink:href="#linear-gradient"/></defs><path class="cls-1" d="M0,98.6c.84-2.69,1.7-5.38,2.52-8.08Q6.65,76.8,10.73,63.05c.22-.71.56-.86,1.23-.86,4.47,0,8.93,0,13.39,0,.74,0,1-.2,1.26-.95,2.84-9.56,5.73-19.11,8.56-28.68a1.21,1.21,0,0,1,1.41-1q13.47,0,27,0c.82,0,1.1.27,1.32,1,2.84,9.56,5.73,19.11,8.56,28.68a1.15,1.15,0,0,0,1.34,1c4.47,0,8.93,0,13.39,0a1,1,0,0,1,1.14.84Q94.51,80.51,99.76,98c.08.27.14.55.24,1H1.36C.91,98.93.45,99,0,99Zm45.83-5.86c0-.28-.08-.47-.13-.65C43.39,84.4,41.07,76.72,38.79,69c-.2-.68-.56-.72-1.13-.72-7.06,0-14.12,0-21.18,0a1,1,0,0,0-1.2.91c-2.23,7.54-4.5,15.07-6.75,22.6-.09.29-.14.59-.22.94Zm8.33,0H91.72a4.17,4.17,0,0,0-.12-.63C89.3,84.39,87,76.71,84.7,69c-.21-.7-.58-.71-1.14-.71-7.06,0-14.13,0-21.19,0-.74,0-1,.26-1.19.92-1.48,5.05-3,10.09-4.51,15.13ZM67.24,62.14c-.07-.31-.1-.55-.18-.79-2.28-7.63-4.58-15.24-6.83-22.88-.21-.69-.55-.8-1.18-.79-6,0-12,0-18.06,0a1,1,0,0,0-1.21.89c-2,6.7-4,13.38-6,20.07l-1.05,3.51ZM55.07,68.36H45l4.94,16.46.23,0C51.78,79.34,53.41,73.88,55.07,68.36Z"/><path class="cls-2" d="M47,1h6V13.15H47Z"/><path class="cls-3" d="M34.48,17.31,29.37,6.19l5.55-2.57L40,14.74Z"/><path class="cls-4" d="M65.56,17.27,60,14.72C61.71,11,63.39,7.33,65.1,3.59l5.56,2.56C69,9.84,67.29,13.49,65.56,17.27Z"/><path class="cls-5" d="M15.54,18.23l4-4.63,9.28,8-4,4.64Z"/><path class="cls-6" d="M80.49,13.56l4,4.63-9.27,8-4-4.63Z"/><path class="cls-7" d="M78.58,32.44l11.76-3.38c.56,2,1.11,3.84,1.69,5.87L80.28,38.31Z"/><path class="cls-8" d="M19.75,38.32,8,35l1.69-5.88,11.75,3.37Z"/></svg>