<svg id="design" xmlns="http://www.w3.org/2000/svg" viewBox="0 0 200 180"><defs><style>.cls-1{fill:#ccc;}.cls-2{fill:#eee;}.cls-3{fill:#005eb8;stroke:#005eb8;}.cls-3,.cls-4,.cls-7{stroke-miterlimit:10;}.cls-4{fill:#0f89db;stroke:#0f89db;}.cls-5{fill:#70bef2;}.cls-6{fill:#fff;}.cls-7{fill:none;stroke:#fbb040;stroke-width:15px;}.cls-8{fill:#fbb040;}</style></defs><title>roi</title><path class="cls-1" d="M17.76,46H25V56.78H17.76Z"/><path class="cls-2" d="M42.93,99.93h36V180h-36Z"/><path class="cls-1" d="M28.55,56.78H14.16v18H28.55Z"/><path class="cls-1" d="M-.22,74.76H42.93V180H-.22Z"/><path class="cls-3" d="M10.57,99.93h7.19v7.19H10.57Z"/><path class="cls-3" d="M25,99.93h7.19v7.19H25Z"/><path class="cls-3" d="M10.57,114.31h7.19v7.19H10.57Z"/><path class="cls-3" d="M25,114.31h7.19v7.19H25Z"/><path class="cls-3" d="M10.57,128.69h7.19v7.19H10.57Z"/><path class="cls-3" d="M50.21,110.71H57.4v7.19H50.21Z"/><path class="cls-3" d="M64.59,110.71h7.19v7.19H64.59Z"/><path class="cls-3" d="M50.21,125.1H57.4v7.19H50.21Z"/><path class="cls-3" d="M64.59,125.1h7.19v7.19H64.59Z"/><path class="cls-3" d="M25,128.69h7.19v7.19H25Z"/><path class="cls-3" d="M10.57,143.07h7.19v7.19H10.57Z"/><path class="cls-3" d="M50.21,139.48H57.4v7.19H50.21Z"/><path class="cls-3" d="M64.59,139.48h7.19v7.19H64.59Z"/><path class="cls-3" d="M10.57,85.54h7.19v7.19H10.57Z"/><path class="cls-3" d="M25,85.54h7.19v7.19H25Z"/><rect class="cls-2" x="52.4" y="87.37" width="17.01" height="12.56" transform="translate(121.81 187.3) rotate(-180)"/><path class="cls-4" d="M182,46h-7.19V56.78H182Z"/><path class="cls-5" d="M156.85,99.93h-36V180h36Z"/><path class="cls-4" d="M171.24,56.78h14.38v18H171.24Z"/><path class="cls-4" d="M200,74.76H156.85V180H200Z"/><path class="cls-6" d="M189.21,99.93H182v7.19h7.19Z"/><path class="cls-6" d="M174.83,99.93h-7.19v7.19h7.19Z"/><path class="cls-6" d="M189.21,114.31H182v7.19h7.19Z"/><path class="cls-6" d="M174.83,114.31h-7.19v7.19h7.19Z"/><path class="cls-6" d="M189.21,128.69H182v7.19h7.19Z"/><path class="cls-6" d="M149.58,110.71h-7.19v7.19h7.19Z"/><path class="cls-6" d="M135.19,110.71H128v7.19h7.19Z"/><path class="cls-6" d="M149.58,125.1h-7.19v7.19h7.19Z"/><path class="cls-6" d="M135.19,125.1H128v7.19h7.19Z"/><path class="cls-6" d="M174.83,128.69h-7.19v7.19h7.19Z"/><path class="cls-6" d="M189.21,143.07H182v7.19h7.19Z"/><path class="cls-6" d="M149.58,139.48h-7.19v7.19h7.19Z"/><path class="cls-6" d="M135.19,139.48H128v7.19h7.19Z"/><path class="cls-6" d="M189.21,85.54H182v7.19h7.19Z"/><path class="cls-6" d="M174.83,85.54h-7.19v7.19h7.19Z"/><rect class="cls-5" x="130.37" y="87.37" width="17.01" height="12.56"/><line class="cls-7" x1="59.66" y1="27.33" x2="140.34" y2="27.33"/><polygon class="cls-8" points="63.33 0 63.33 54.67 36 27.33 63.33 0"/><polygon class="cls-8" points="136.67 0 136.67 54.67 164 27.33 136.67 0"/></svg>