<svg id="design" xmlns="http://www.w3.org/2000/svg" viewBox="0 0 200 180"><defs><style>.cls-1{fill:#fff;}.cls-2,.cls-4{fill:#0f89db;}.cls-2{stroke:#0f89db;stroke-miterlimit:10;}.cls-3{fill:#fbb040;}.cls-5{fill:#005eb8;}.cls-6{fill:#ed8b00;}</style></defs><title>roi</title><path class="cls-1" d="M23.52,73.78,17.72,77c-.39.19-.58.48-1,.58a19.55,19.55,0,0,0,12.57,4.64A19.27,19.27,0,0,0,41.9,77.65,4,4,0,0,0,40.83,77l-6.38-3.09a2.65,2.65,0,0,1-1.35-2.22V69.24c.19-.29.48-.48.48-.77a13.19,13.19,0,0,0,1.93-3.87A2.07,2.07,0,0,0,37,62.76V60.15a2.45,2.45,0,0,0-.58-1.45V54.83s.77-5.9-7.35-5.9-7.16,5.8-7.16,5.8V58.6A1.77,1.77,0,0,0,21.3,60v2.61a2.3,2.3,0,0,0,.87,1.64,11.47,11.47,0,0,0,2.42,4.93v2.42A1.94,1.94,0,0,1,23.52,73.78Z"/><path class="cls-2" d="M29.37,43.89A19.22,19.22,0,0,0,9.88,62.81a18.87,18.87,0,0,0,6.87,15c.38-.28.47-.47.94-.56l5.65-3.11A2.55,2.55,0,0,0,24.66,72V69.58a13.46,13.46,0,0,1-2.35-4.8,2.1,2.1,0,0,1-.85-1.6V60.64A2.38,2.38,0,0,1,22,59.23V55.47s-.75-5.74,7.15-5.74,7.15,5.74,7.15,5.74v3.76a1.72,1.72,0,0,1,.56,1.41v2.54A1.79,1.79,0,0,1,35.48,65a17.6,17.6,0,0,1-1.88,3.76c-.28.38-.47.47-.47.75v2.45a2.5,2.5,0,0,0,1.32,2.16l6.21,3a9.92,9.92,0,0,1,1,.66,19.3,19.3,0,0,0,7-14.4A19.86,19.86,0,0,0,29.37,43.89Z"/><path class="cls-2" d="M29.27,93A30.13,30.13,0,0,1,3.37,78.18L6.58,76.3a26.28,26.28,0,0,0,48.2-6.94l3.62.89A29.93,29.93,0,0,1,29.27,93Z"/><polygon class="cls-2" points="10.9 76.46 1.95 69.81 0.67 80.88 10.9 76.46"/><path class="cls-2" d="M3.64,57.25,0,56.44a30,30,0,0,1,55.48-8l-3.25,1.81a26.28,26.28,0,0,0-48.59,7Z"/><polygon class="cls-2" points="47.91 50.02 56.72 56.85 58.23 45.8 47.91 50.02"/><path class="cls-3" d="M90.43,59.72V50h19.14v9.75h7.91V48.31a6,6,0,0,0-6.07-6.07H89.14a6,6,0,0,0-6.07,6.07V59.72Z"/><path class="cls-4" d="M148.22,59.72H52a5.73,5.73,0,0,0-5.71,5.71v66.63A5.73,5.73,0,0,0,52,137.76h96.26a5.73,5.73,0,0,0,5.71-5.71V65.43A5.73,5.73,0,0,0,148.22,59.72Z"/><path class="cls-5" d="M153.74,91.75V65.43A5.73,5.73,0,0,0,148,59.72H51.78a5.73,5.73,0,0,0-5.71,5.71v26.5Q100.18,123.68,153.74,91.75Z"/><path class="cls-6" d="M105.15,99.48H95.4a1.19,1.19,0,0,0-1.1,1.1v14.36a1.19,1.19,0,0,0,1.1,1.1h9.75a1.19,1.19,0,0,0,1.1-1.1V100.58C106.07,99.85,105.89,99.48,105.15,99.48Z"/><path class="cls-1" d="M165.13,40.74l-5.8,3.19c-.39.19-.58.48-1,.58a19.55,19.55,0,0,0,12.57,4.64,19.27,19.27,0,0,0,12.57-4.55,4,4,0,0,0-1.06-.68l-6.38-3.09a2.65,2.65,0,0,1-1.35-2.22V36.19c.19-.29.48-.48.48-.77a13.19,13.19,0,0,0,1.93-3.87,2.07,2.07,0,0,0,1.45-1.84V27.1a2.45,2.45,0,0,0-.58-1.45V21.79s.77-5.9-7.35-5.9-7.16,5.8-7.16,5.8v3.87A1.77,1.77,0,0,0,162.9,27v2.61a2.3,2.3,0,0,0,.87,1.64,11.47,11.47,0,0,0,2.42,4.93v2.42A1.94,1.94,0,0,1,165.13,40.74Z"/><path class="cls-5" d="M171,10.85a19.22,19.22,0,0,0-19.48,18.92,18.87,18.87,0,0,0,6.87,15c.38-.28.47-.47.94-.56l5.65-3.11A2.55,2.55,0,0,0,166.26,39V36.54a13.46,13.46,0,0,1-2.35-4.8,2.1,2.1,0,0,1-.85-1.6V27.6a2.38,2.38,0,0,1,.56-1.41V22.43s-.75-5.74,7.15-5.74,7.15,5.74,7.15,5.74v3.76a1.72,1.72,0,0,1,.56,1.41v2.54a1.79,1.79,0,0,1-1.41,1.79,17.6,17.6,0,0,1-1.88,3.76c-.28.38-.47.47-.47.75v2.45a2.5,2.5,0,0,0,1.32,2.16l6.21,3a9.92,9.92,0,0,1,1,.66,19.3,19.3,0,0,0,7-14.4A19.86,19.86,0,0,0,171,10.85Z"/><path class="cls-5" d="M170.87,60A30.13,30.13,0,0,1,145,45.14l3.21-1.88a26.28,26.28,0,0,0,48.2-6.94l3.62.89A29.93,29.93,0,0,1,170.87,60Z"/><polygon class="cls-5" points="152.51 43.41 143.56 36.77 142.27 47.84 152.51 43.41"/><path class="cls-5" d="M145.24,24.21l-3.64-.82a30,30,0,0,1,55.48-8l-3.25,1.81a26.28,26.28,0,0,0-48.59,7Z"/><polygon class="cls-5" points="189.52 16.98 198.33 23.8 199.84 12.76 189.52 16.98"/><path class="cls-1" d="M149.3,160.74l-5.8,3.19c-.39.19-.58.48-1,.58a19.55,19.55,0,0,0,12.57,4.64,19.27,19.27,0,0,0,12.57-4.55,4,4,0,0,0-1.06-.68l-6.38-3.09a2.65,2.65,0,0,1-1.35-2.22v-2.42c.19-.29.48-.48.48-.77a13.19,13.19,0,0,0,1.93-3.87,2.07,2.07,0,0,0,1.45-1.84V147.1a2.45,2.45,0,0,0-.58-1.45v-3.87s.77-5.9-7.35-5.9-7.16,5.8-7.16,5.8v3.87a1.77,1.77,0,0,0-.58,1.45v2.61a2.3,2.3,0,0,0,.87,1.64,11.47,11.47,0,0,0,2.42,4.93v2.42A1.94,1.94,0,0,1,149.3,160.74Z"/><path class="cls-6" d="M155.14,130.85a19.22,19.22,0,0,0-19.48,18.92,18.87,18.87,0,0,0,6.87,15c.38-.28.47-.47.94-.56l5.65-3.11a2.55,2.55,0,0,0,1.32-2.07v-2.45a13.46,13.46,0,0,1-2.35-4.8,2.1,2.1,0,0,1-.85-1.6V147.6a2.38,2.38,0,0,1,.56-1.41v-3.76s-.75-5.74,7.15-5.74,7.15,5.74,7.15,5.74v3.76a1.72,1.72,0,0,1,.56,1.41v2.54a1.79,1.79,0,0,1-1.41,1.79,17.6,17.6,0,0,1-1.88,3.76c-.28.38-.47.47-.47.75v2.45a2.5,2.5,0,0,0,1.32,2.16l6.21,3a9.92,9.92,0,0,1,1,.66,19.3,19.3,0,0,0,7-14.4A19.86,19.86,0,0,0,155.14,130.85Z"/><path class="cls-6" d="M155,180a30.13,30.13,0,0,1-25.9-14.86l3.21-1.88a26.28,26.28,0,0,0,48.2-6.94l3.62.89A29.93,29.93,0,0,1,155,180Z"/><polygon class="cls-6" points="136.68 163.41 127.73 156.77 126.44 167.84 136.68 163.41"/><path class="cls-6" d="M129.41,144.21l-3.64-.82a30,30,0,0,1,55.48-8L178,137.22a26.28,26.28,0,0,0-48.59,7Z"/><polygon class="cls-6" points="173.69 136.98 182.5 143.81 184.01 132.76 173.69 136.98"/></svg>