<svg id="Layer_1" data-name="Layer 1" xmlns="http://www.w3.org/2000/svg" viewBox="0 0 84 84"><defs><style>.cls-1{fill:#eee;stroke:#fff;stroke-width:4px;}.cls-2{fill:none;stroke:#f2eded;}.cls-3{fill:#ed8b00;}.cls-4{fill:#fbb040;}.cls-5{fill:#fff;}.cls-6{fill:#005eb8;}.cls-7{fill:#0383db;}.cls-8{fill:#e1f1fa;}.cls-9{fill:#6fc4f7;}.cls-10{fill:#123155;}</style></defs><title>areas-of-development</title><g id="Rectangle-290"><path id="path-1" class="cls-1" d="M41,1h2A40,40,0,0,1,83,41v2A40,40,0,0,1,43,83H41A40,40,0,0,1,1,43V41A40,40,0,0,1,41,1Z"/><path id="path-1-2" data-name="path-1" class="cls-2" d="M41,1h2A40,40,0,0,1,83,41v2A40,40,0,0,1,43,83H41A40,40,0,0,1,1,43V41A40,40,0,0,1,41,1Z"/></g><path class="cls-3" d="M39.74,63.74H28.35a1.13,1.13,0,0,1,0-2.26H39.74a1.13,1.13,0,1,1,0,2.26Z"/><path class="cls-3" d="M55.65,63.74H44.26a1.13,1.13,0,1,1,0-2.26H55.65a1.13,1.13,0,0,1,0,2.26Z"/><path class="cls-3" d="M43.13,55.67v4.67a1.13,1.13,0,0,1-2.26,0V55.67a1.13,1.13,0,0,1,2.26,0Z"/><path class="cls-4" d="M42,59.22a3.39,3.39,0,1,0,3.39,3.39A3.39,3.39,0,0,0,42,59.22Z"/><path class="cls-4" d="M57.91,66a3.39,3.39,0,1,1,3.39-3.39A3.4,3.4,0,0,1,57.91,66Z"/><path class="cls-5" d="M57.91,63.74A1.13,1.13,0,1,1,59,62.61,1.13,1.13,0,0,1,57.91,63.74Z"/><path class="cls-4" d="M26.09,66a3.39,3.39,0,1,1,3.39-3.39A3.4,3.4,0,0,1,26.09,66Z"/><path class="cls-5" d="M26.09,63.74a1.13,1.13,0,1,1,1.13-1.13A1.13,1.13,0,0,1,26.09,63.74Z"/><path class="cls-6" d="M57.91,36.45H26.09A1.12,1.12,0,0,0,25,37.58V42.1a1.12,1.12,0,0,0,1.13,1.13H57.91A1.12,1.12,0,0,0,59,42.1V37.58A1.12,1.12,0,0,0,57.91,36.45Z"/><path class="cls-6" d="M57.91,50H26.09A1.12,1.12,0,0,0,25,51.15v2.26a3.39,3.39,0,0,0,3.39,3.39H55.65A3.39,3.39,0,0,0,59,53.41V51.15A1.12,1.12,0,0,0,57.91,50Z"/><path class="cls-7" d="M57.91,41H26.09a3.39,3.39,0,0,0-3.39,3.39v4.52a3.39,3.39,0,0,0,3.39,3.39H57.91a3.39,3.39,0,0,0,3.39-3.39V44.36A3.39,3.39,0,0,0,57.91,41Z"/><path class="cls-5" d="M42,63.74a1.13,1.13,0,1,1,1.13-1.13A1.13,1.13,0,0,1,42,63.74Z"/><path class="cls-7" d="M57.91,27.4H26.09a3.39,3.39,0,0,0-3.39,3.39v4.52a3.39,3.39,0,0,0,3.39,3.39H57.91a3.39,3.39,0,0,0,3.39-3.39V30.79A3.39,3.39,0,0,0,57.91,27.4Z"/><circle class="cls-8" cx="28.35" cy="33.06" r="1.13"/><circle class="cls-6" cx="32.95" cy="33.06" r="1.13"/><circle class="cls-6" cx="37.48" cy="33.06" r="1.13"/><path class="cls-9" d="M55.65,34.19H44.26a1.13,1.13,0,1,1,0-2.26H55.65a1.13,1.13,0,0,1,0,2.26Z"/><circle class="cls-8" cx="28.35" cy="46.63" r="1.13"/><circle class="cls-6" cx="32.95" cy="46.63" r="1.13"/><circle class="cls-6" cx="37.48" cy="46.63" r="1.13"/><path class="cls-9" d="M55.65,47.76H44.26a1.13,1.13,0,1,1,0-2.26H55.65a1.13,1.13,0,0,1,0,2.26Z"/><circle class="cls-5" cx="42" cy="29.49" r="11.49"/><path class="cls-10" d="M37.28,25.78l-3.7,3.7,3.7,3.7,1.06-1.06-2.65-2.65,2.65-2.65Z"/><path class="cls-10" d="M45.66,26.84l2.65,2.65-2.65,2.65,1.06,1.06,3.7-3.7-3.7-3.7Z"/><path class="cls-10" d="M39.6,31.89,43.13,26l1.28.77-3.53,5.89Z"/></svg>