<svg id="design" xmlns="http://www.w3.org/2000/svg" xmlns:xlink="http://www.w3.org/1999/xlink" viewBox="0 0 100 100"><defs><style>.cls-1{fill:url(#linear-gradient);}</style><linearGradient id="linear-gradient" x1="50" y1="85.15" x2="50" y2="14.85" gradientUnits="userSpaceOnUse"><stop offset="0" stop-color="#fbb040"/><stop offset="1" stop-color="#ed8b00"/></linearGradient></defs><path class="cls-1" d="M100,47.52A14.65,14.65,0,0,0,84.9,32.43H64.42V14.85H0V79.32c3.77,0,7.55,0,11.32,0a1.15,1.15,0,0,1,1.24.76,8.4,8.4,0,0,0,7.91,5.09,8.44,8.44,0,0,0,8-5.1,1.07,1.07,0,0,1,1.14-.75q20.4,0,40.8,0A1,1,0,0,1,71.5,80a8.76,8.76,0,0,0,16,.06,1.09,1.09,0,0,1,1.15-.74c3.45,0,6.9,0,10.35,0h1V47.52ZM20.47,79.31a2.93,2.93,0,1,1,3-3A3,3,0,0,1,20.47,79.31Zm38.05-5.85h-1q-13.86,0-27.72,0a1.28,1.28,0,0,1-1.38-.85,8.36,8.36,0,0,0-8-5,8.37,8.37,0,0,0-7.85,5,1.27,1.27,0,0,1-1.39.84c-1.74,0-3.49,0-5.3,0V20.76H58.52Zm21,5.85a2.93,2.93,0,1,1,2.88-3A3,3,0,0,1,79.54,79.31Zm14.54-5.86c-2,0-4,0-6,0-.2,0-.46-.3-.57-.52a8.48,8.48,0,0,0-8.08-5.28c-3.77,0-6.45,1.91-8.08,5.31a1,1,0,0,1-.68.49c-2,0-4.09,0-6.2,0V38.34h6.16v17.5h23.4Zm0-23.51H76.6V38.29c1.16,0,2.29,0,3.41,0a61.07,61.07,0,0,1,6.91.2,8.53,8.53,0,0,1,7.18,7.87C94.19,47.53,94.11,48.71,94.11,49.94ZM17.53,61.66H11.79V32.48h5.74Zm11.7,0H23.49V32.48h5.74Zm11.74,0H35.22V32.48H41Zm11.71,0H46.94V32.48h5.74Z"/></svg>