<svg id="design" xmlns="http://www.w3.org/2000/svg" viewBox="0 0 100 100"><defs><style>.cls-1{fill:#222;}.cls-2{fill:#fbb040;}</style></defs><path class="cls-1" d="M0,49.22a33.31,33.31,0,0,0,2.33-3.09c6.76-8.81,14.45-16.64,23.85-22.67a47.71,47.71,0,0,1,17.94-7.24,37.49,37.49,0,0,1,20.35,2.41A65.32,65.32,0,0,1,83.59,30.86,102.41,102.41,0,0,1,99.31,48.41c.24.33.46.67.69,1v1.18C91.72,62.3,81.94,72.41,69.14,79.22a39.52,39.52,0,0,1-21.45,5,42.5,42.5,0,0,1-17.48-5.3c-9.71-5.23-17.61-12.61-24.66-21C3.71,55.72,2,53.46.34,51.1A2.08,2.08,0,0,0,0,50.78ZM49.38,80.35A35.43,35.43,0,0,0,54.87,80a43.23,43.23,0,0,0,15.88-6.15c9.82-6,17.66-14.17,24.55-23.31.38-.5.18-.78-.11-1.17A101.57,101.57,0,0,0,82.31,35,63.49,63.49,0,0,0,63.22,22.37a33.69,33.69,0,0,0-17-2.49A42,42,0,0,0,29.38,26.1c-9.87,6-17.73,14.18-24.65,23.34a.82.82,0,0,0,0,1.18C6.42,52.8,8.12,54.94,9.92,57c6.23,7.12,13.12,13.45,21.46,18C37.18,78.25,43.31,80.33,49.38,80.35Z"/><path class="cls-1" d="M21.78,76.33a1.8,1.8,0,0,1,1.66,1,1.77,1.77,0,0,1-.11,2A16.63,16.63,0,0,1,20.64,82a1.92,1.92,0,0,1-2.75-2.55,16,16,0,0,1,2.87-2.89A1.47,1.47,0,0,1,21.78,76.33Z"/><path class="cls-1" d="M78.28,76.33c1.22,0,4.14,2.92,4.12,4.12a1.89,1.89,0,0,1-1,1.68,1.7,1.7,0,0,1-2-.08,16.26,16.26,0,0,1-2.75-2.75,1.74,1.74,0,0,1,0-2A1.81,1.81,0,0,1,78.28,76.33Z"/><path class="cls-1" d="M48.05,91.47c0-.52,0-1,0-1.56a1.94,1.94,0,0,1,3.88-.07c.05,1.11.05,2.21,0,3.32A1.89,1.89,0,0,1,50,95a1.91,1.91,0,0,1-2-1.87C48,92.57,48.05,92,48.05,91.47Z"/><path class="cls-1" d="M23.67,21.58a1.88,1.88,0,0,1-1,1.88,1.71,1.71,0,0,1-2-.16A29.33,29.33,0,0,1,18,20.69a1.92,1.92,0,0,1,2.55-2.78,17,17,0,0,1,2.83,2.8A1.23,1.23,0,0,1,23.67,21.58Z"/><path class="cls-1" d="M78.37,23.67a1.86,1.86,0,0,1-1.81-1,1.73,1.73,0,0,1,.12-2A17.35,17.35,0,0,1,79.36,18a1.91,1.91,0,0,1,2.83,2.38,11.83,11.83,0,0,1-3.13,3.14A1.64,1.64,0,0,1,78.37,23.67Z"/><path class="cls-1" d="M48.06,8.44c0-.55,0-1.11,0-1.66A1.92,1.92,0,0,1,50,5a1.87,1.87,0,0,1,1.89,1.73,27.41,27.41,0,0,1,0,3.51,1.85,1.85,0,0,1-2,1.71,1.89,1.89,0,0,1-1.86-1.77C48,9.61,48.06,9,48.06,8.44Z"/><path class="cls-2" d="M67.33,34.36c-2.91,1.94-2.78,4.44-1.86,6.09,1.21,2.17,3.4,2.62,6.38,1.38C75.21,49,74,62.14,63.11,69.49A23.49,23.49,0,1,1,37,30.45C48.16,23,61.64,27.08,67.33,34.36ZM63.64,50a1.9,1.9,0,0,0-1.58-1.85c-.51-.09-.6-.34-.71-.74a11.43,11.43,0,0,0-8.67-8.71c-.42-.12-.7-.22-.8-.77a1.92,1.92,0,0,0-3.77,0,.79.79,0,0,1-.72.73,11.46,11.46,0,0,0-8.75,8.75.79.79,0,0,1-.72.72,1.92,1.92,0,0,0,0,3.77c.54.1.65.37.77.8a11.44,11.44,0,0,0,8.71,8.67c.39.11.65.19.74.71a1.92,1.92,0,0,0,3.79,0,.74.74,0,0,1,.66-.67,11.42,11.42,0,0,0,8.8-8.81A.75.75,0,0,1,62,51.9,1.94,1.94,0,0,0,63.64,50Z"/><path class="cls-1" d="M63.64,50A1.94,1.94,0,0,1,62,51.9a.75.75,0,0,0-.67.66,11.42,11.42,0,0,1-8.8,8.81.74.74,0,0,0-.66.67,1.92,1.92,0,0,1-3.79,0c-.09-.52-.35-.6-.74-.71a11.44,11.44,0,0,1-8.71-8.67c-.12-.43-.23-.7-.77-.8a1.92,1.92,0,0,1,0-3.77.79.79,0,0,0,.72-.72,11.46,11.46,0,0,1,8.75-8.75.79.79,0,0,0,.72-.73,1.92,1.92,0,0,1,3.77,0c.1.55.38.65.8.77a11.43,11.43,0,0,1,8.67,8.71c.11.4.2.65.71.74A1.9,1.9,0,0,1,63.64,50Zm-6.15,2.12c-2.22-1.33-2.21-2.53,0-4.22a7.84,7.84,0,0,0-5.39-5.35c-1.33,2.22-2.52,2.21-4.22,0a7.82,7.82,0,0,0-5.35,5.39c2.22,1.32,2.21,2.52,0,4.22a7.79,7.79,0,0,0,5.39,5.34c1.32-2.21,2.53-2.2,4.22,0A7.86,7.86,0,0,0,57.49,52.08Z"/><path class="cls-2" d="M57.49,52.08a7.86,7.86,0,0,1-5.35,5.39c-1.69-2.19-2.9-2.2-4.22,0a7.79,7.79,0,0,1-5.39-5.34c2.19-1.7,2.2-2.9,0-4.22a7.82,7.82,0,0,1,5.35-5.39c1.7,2.19,2.89,2.2,4.22,0a7.84,7.84,0,0,1,5.39,5.35C55.28,49.55,55.27,50.75,57.49,52.08Z"/></svg>