<svg id="design" xmlns="http://www.w3.org/2000/svg" viewBox="0 0 200 180"><defs><style>.cls-1{fill:#f0f0f0;}.cls-2{fill:#c3e7fc;}.cls-3{fill:#f4f4f4;}.cls-4{fill:#d6eefc;}.cls-5{fill:#fbb040;}.cls-6{fill:#ed8b00;}.cls-7{fill:#005eb8;stroke:#005eb8;stroke-miterlimit:10;}.cls-8{fill:#0383db;}</style></defs><path class="cls-1" d="M71.64,34.22l38-13.82,1.85,5.1-38,13.82Z"/><path class="cls-1" d="M127.57,29l3.84-3.84,43.37,43.38L171,72.41Z"/><path class="cls-1" d="M134.55,75l.74-5.38,32.55,4.47-.74,5.37Z"/><path class="cls-1" d="M68.62,47.18,71,42.33,114.4,64,112,68.86Z"/><path class="cls-1" d="M70.43,118.61l2.44-4.85,38.82,19.46-2.43,4.85Z"/><path class="cls-1" d="M118.66,81.34h5.42v46.09h-5.42Z"/><path class="cls-1" d="M66.42,98.82l45.69-70.46,4.55,2.95L71,101.77Z"/><path class="cls-1" d="M128.51,129.55l42.78-44.76,3.92,3.75L132.43,133.3Z"/><path class="cls-1" d="M66.32,53.64,71,50.87l44.7,75.21L111,128.85Z"/><path class="cls-2" d="M80.7,111.17a18.44,18.44,0,0,1-2,8.48,19,19,0,1,1,2-8.48Z"/><path class="cls-3" d="M135.77,125.94a18.74,18.74,0,0,1,4.58,12.34,19,19,0,1,1-36.9-6.24,19,19,0,0,1,32.32-6.1Z"/><path class="cls-4" d="M181,59.65a19,19,0,0,1,0,38,19.06,19.06,0,0,1-19-19,16.55,16.55,0,0,1,.19-2.55A18.94,18.94,0,0,1,181,59.65Z"/><path class="cls-3" d="M140.16,73a19,19,0,0,1-37.77-2.55,18.57,18.57,0,0,1,2-8.48,19,19,0,0,1,35.95,8.48A15.39,15.39,0,0,1,140.16,73Z"/><path class="cls-2" d="M121.37,0a19,19,0,0,1,0,38,19,19,0,0,1-17.84-12.5A19,19,0,0,1,121.37,0Z"/><path class="cls-3" d="M79.56,34.19a19,19,0,0,1,1.14,6.48,18.48,18.48,0,0,1-2,8.49,19,19,0,1,1,.87-15Z"/><path class="cls-5" d="M39,51l-7.11,2.56c-.76.17-1.05.79-1.34,1.25l-2.91,7.11L25,54.82c-.17-.77-.79-1-1.25-1.35L16.7,50.58,23.83,48c.76-.17,1-.79,1.34-1.25l2.9-7.1,2.6,7.12c.16.76.79,1,1.25,1.34Z"/><path class="cls-6" d="M58.16,71.87l-5.25,1.91c-.56.12-.78.58-1,.93l-2.13,5.23-1.92-5.26a1.59,1.59,0,0,0-.92-1l-5.23-2.18L47,69.65c.56-.12.78-.57,1-.93l2.13-5.22L52,68.72c.13.56.58.78.93,1Z"/><path class="cls-6" d="M177.71,28.63l-5.26,1.92c-.56.12-.78.57-1,.93l-2.14,5.22-1.91-5.25c-.12-.56-.58-.78-.93-1l-5.23-2.13,5.26-1.95c.56-.12.78-.58,1-.93l2.14-5.23,1.91,5.26c.12.56.58.78.93,1Z"/><path class="cls-7" d="M76.12,96.75,1,171.82a3.48,3.48,0,0,0,0,4.92H1L3.26,179a3.46,3.46,0,0,0,4.91,0h0L83.25,103.9Z"/><path class="cls-8" d="M2.08,177.82l77.53-77.56-3.49-3.51L1,171.82a3.48,3.48,0,0,0,0,4.92H1Z"/><path class="cls-6" d="M91.65,86.67l-4.2-1.3L76,96.82,83.18,104,94.64,92.5l-1.29-4.12A2.62,2.62,0,0,0,91.65,86.67Z"/><path class="cls-5" d="M92.63,87.25a2.71,2.71,0,0,0-1-.58l-4.2-1.3L76,96.82l3.52,3.52Z"/><path class="cls-5" d="M129.4,86.52l-8.8-11.8a2.62,2.62,0,0,1-.38-2.39L125,58.4a2.59,2.59,0,0,0-1.63-3.29,2.52,2.52,0,0,0-1.67,0l-14,4.71a2.59,2.59,0,0,1-2.39-.38L93.53,50.63a2.61,2.61,0,0,0-3.64.54,2.57,2.57,0,0,0-.51,1.58l.19,14.72a2.61,2.61,0,0,1-1.1,2.16l-12,8.49a2.6,2.6,0,0,0,.72,4.64l14.06,4.38A2.61,2.61,0,0,1,93,88.85l4.37,14.05a2.6,2.6,0,0,0,3.23,1.76,2.65,2.65,0,0,0,1.41-1l8.51-12a2.6,2.6,0,0,1,2.15-1.09l14.72.18a2.6,2.6,0,0,0,2.12-4.15Z"/><path class="cls-6" d="M105.28,87.39a2.61,2.61,0,0,0-1.71-1.71L89.51,81.27a2.6,2.6,0,0,1-.72-4.64l12-8.51a2.59,2.59,0,0,0,1.1-2.15l-.13-9.28-8.25-6.06a2.61,2.61,0,0,0-3.64.54,2.57,2.57,0,0,0-.51,1.58l.19,14.72a2.61,2.61,0,0,1-1.1,2.16l-12,8.49a2.6,2.6,0,0,0,.72,4.64l14.06,4.38A2.61,2.61,0,0,1,93,88.85l4.37,14.05a2.6,2.6,0,0,0,3.23,1.76,2.65,2.65,0,0,0,1.41-1l5.83-8.25Z"/></svg>