<svg id="design" xmlns="http://www.w3.org/2000/svg" viewBox="0 0 200 180"><defs><style>.cls-1{fill:#c3e7fc;}.cls-2{fill:#e3f4fc;}.cls-3{fill:#70bef2;}.cls-4{fill:#fff;}.cls-5{fill:#0a0080;}.cls-6{fill:#fbb040;}.cls-7{fill:#ed8b00;}.cls-8{fill:#005eb8;stroke:#005eb8;stroke-miterlimit:10;}.cls-9{fill:#0383db;}</style></defs><path class="cls-1" d="M200,82l-5.46,1.89c-.58.12-.81.59-1,.94l-2.3,5.36-1.89-5.46c-.12-.58-.58-.81-.93-1L183,81.37l5.46-1.89c.58-.12.81-.59,1-.94l2.3-5.37,1.89,5.46a1.67,1.67,0,0,0,.93,1.05Z"/><path class="cls-1" d="M17,49.12,11.54,51c-.58.11-.81.58-1,.93l-2.3,5.37L6.3,51.85a1.67,1.67,0,0,0-.93-1.05L0,48.5l5.46-1.89c.58-.12.81-.58,1-.93l2.3-5.37,1.89,5.46c.12.58.58.81.93,1Z"/><path class="cls-2" d="M189.93,40.89l-7.16,2.48a2.22,2.22,0,0,0-1.37,1.23l-3,7-2.47-7.16c-.16-.76-.77-1.06-1.23-1.36l-7-3,7.15-2.48c.77-.15,1.07-.77,1.37-1.22l3-7,2.48,7.16c.15.76.76,1.06,1.22,1.37Z"/><path class="cls-3" d="M100,74.28l-5.83,38.44L100,180l58-19.22V93.5Z"/><path class="cls-1" d="M42,93.5v67.28L100,180V74.28Z"/><path class="cls-4" d="M138.21,147.24c0-3.11-2.11-4.93-8.14-5.76-4.69-.65-10-1.67-10.25-8.24-.12-2.82.75-7,4.86-11.15l-13.57,4.44v39.16l10.83-3.54C132.54,158.69,138.21,153.57,138.21,147.24Z"/><path class="cls-4" d="M140.9,142.9a7.54,7.54,0,0,1,.59,2.41l8.78-2.87v-2.61Z"/><path class="cls-4" d="M136.71,139.05a8.84,8.84,0,0,1,2.82,1.68l10.74-3.51v-2.61Z"/><path class="cls-4" d="M150.27,145.05l-8.72,2.86a14.7,14.7,0,0,1-.71,2.84l9.43-3.09Z"/><path class="cls-4" d="M150.27,116.34v-2.62L139,117.4c-4.32,1.41-9,3.46-12.19,6.6Z"/><path class="cls-4" d="M139.32,153.86a19,19,0,0,1-2.9,3.55l13.85-4.52v-2.61Z"/><path class="cls-4" d="M124.26,127.45a10.27,10.27,0,0,0-1,2.93l27-8.82V119Z"/><path class="cls-4" d="M127,137a25.65,25.65,0,0,0,4.24.81c.3,0,.6.07.9.12L150.27,132v-2.61Z"/><path class="cls-4" d="M123.31,133a3.93,3.93,0,0,0,1,2.28l26-8.49v-2.61Z"/><path class="cls-5" d="M153.12,34H115.88V29.49h35.36L159,21.75V11.34h4.53V23.63Z"/><path class="cls-5" d="M136.3,65.79h20.42v4.54H136.3Z"/><path class="cls-5" d="M129.49,45.37h20.42v4.54H129.49Z"/><path class="cls-5" d="M131.76,86.21h18.15v4.54H131.76Z"/><path class="cls-5" d="M84.12,34H46.88l-10.4-10.4V11.34H41V21.75l7.75,7.74H84.12Z"/><path class="cls-5" d="M43.28,65.79H63.7v4.54H43.28Z"/><path class="cls-5" d="M50.09,45.37H70.51v4.54H50.09Z"/><path class="cls-5" d="M50.09,86.21H70.51v4.54H50.09Z"/><path class="cls-5" d="M97.73,11.34h4.54V31.76H97.73Z"/><path class="cls-5" d="M118.15,38.57h-4.54V14.94L124,4.54h7.74V9.07h-5.87l-7.74,7.75Z"/><path class="cls-5" d="M86.39,38.57H81.85V16.82L74.11,9.07H68.24V4.54H76l10.41,10.4Z"/><circle class="cls-6" cx="45.55" cy="47.64" r="6.81"/><circle class="cls-7" cx="38.75" cy="68.06" r="6.81"/><circle class="cls-6" cx="161.25" cy="68.06" r="6.81"/><circle class="cls-7" cx="154.45" cy="47.64" r="6.81"/><circle class="cls-6" cx="161.25" cy="6.81" r="6.81"/><circle class="cls-7" cx="136.3" cy="6.81" r="6.81"/><circle class="cls-6" cx="100" cy="6.81" r="6.81"/><circle class="cls-7" cx="63.7" cy="6.81" r="6.81"/><circle class="cls-6" cx="38.75" cy="6.81" r="6.81"/><path class="cls-8" d="M115.88,30.79l1.84-2a38.39,38.39,0,0,1,5.42,3c.68.41,1.34.86,2,1.34L123.05,40a38,38,0,0,1,5,5L135,42.92a39.18,39.18,0,0,1,2.95,4.72c.5.89.93,1.77,1.36,2.7l-5.33,5a34.55,34.55,0,0,1,1.84,6.81l7.1,1.65a41.94,41.94,0,0,1,0,8.58L135.78,74a34.55,34.55,0,0,1-1.84,6.81l5.31,5c-.41.93-.86,1.81-1.34,2.7A39.18,39.18,0,0,1,135,93.2L128,91.11a38,38,0,0,1-5,5l2.09,6.92c-.66.48-1.32.93-2,1.34a40.65,40.65,0,0,1-5.42,3l-1.84-2v0L112.75,102a34.55,34.55,0,0,1-6.81,1.84l-1.65,7.1a40.12,40.12,0,0,1-8.58,0l-1.65-7.1A34.55,34.55,0,0,1,87.25,102l-3.13,3.33-1.84,2a38.39,38.39,0,0,1-5.42-3c-.68-.41-1.34-.86-2-1.34L77,96.1a38,38,0,0,1-5-5L65,93.2a39.18,39.18,0,0,1-3-4.72c-.5-.89-.93-1.77-1.36-2.7l5.33-5A34.55,34.55,0,0,1,64.22,74l-7.1-1.65a41.94,41.94,0,0,1,0-8.58l7.1-1.65a34.55,34.55,0,0,1,1.84-6.81l-5.31-5c.41-.93.86-1.81,1.34-2.7a39.18,39.18,0,0,1,3-4.72L72,45a38,38,0,0,1,5-5L74.86,33.1c.66-.48,1.32-.93,2-1.34a40.65,40.65,0,0,1,5.42-3l1.84,2v0l3.13,3.33a34.55,34.55,0,0,1,6.81-1.84l1.65-7.1a41.94,41.94,0,0,1,8.58,0l1.65,7.1a34.55,34.55,0,0,1,6.81,1.84Z"/><circle class="cls-9" cx="100" cy="68.06" r="29.49"/><ellipse class="cls-4" cx="100" cy="54.44" rx="15.3" ry="4.28"/><path class="cls-4" d="M87.15,63.49l.59.25-.59-.24a2.06,2.06,0,0,1-.26-.12Z"/><path class="cls-4" d="M113.11,63.38a2.06,2.06,0,0,1-.26.12l-.59.24.59-.25Z"/><path class="cls-4" d="M115.67,64.65c0,2.42-7,4.38-15.67,4.38s-15.67-2-15.67-4.38c0-.68.54-1.31,1.5-1.88,2.52-1.49,7.91-2.51,14.17-2.51s11.65,1,14.17,2.51C115.13,63.34,115.67,64,115.67,64.65Z"/><path class="cls-4" d="M115.67,75.31c0,2.42-7,4.38-15.67,4.38s-15.67-2-15.67-4.38a1.12,1.12,0,0,1,0-.32,2.81,2.81,0,0,1,1.46-1.57c2.52-1.49,7.92-2.51,14.17-2.51s11.65,1,14.17,2.51A2.81,2.81,0,0,1,115.63,75,1.12,1.12,0,0,1,115.67,75.31Z"/><path class="cls-2" d="M115.3,54.44v6.74c0,.66-.53,1.27-1.47,1.83a6.1,6.1,0,0,1-.72.37l-.26.12-.59.24a19.76,19.76,0,0,1-2.27.68l-.63.15h0l-.85.17-.64.11c-.38.06-.77.13-1.17.18a52.1,52.1,0,0,1-13.36,0c-.4,0-.79-.12-1.17-.18l-.64-.11h0l-.83-.17L90,64.42a19.76,19.76,0,0,1-2.27-.68l-.59-.24-.26-.12a6.1,6.1,0,0,1-.72-.37c-.94-.56-1.47-1.18-1.47-1.83V54.44c0,2.37,6.85,4.29,15.3,4.29S115.3,56.81,115.3,54.44Z"/><path class="cls-2" d="M115.67,64.65v6.89c0,.68-.54,1.31-1.5,1.88a6.45,6.45,0,0,1-.74.38l-.27.12-.6.25a18.87,18.87,0,0,1-2.33.69l-.65.15h0c-.28.07-.57.12-.87.18l-.66.12-1.19.18a53.54,53.54,0,0,1-13.7,0L92,75.31l-.66-.12h0c-.3-.06-.58-.11-.86-.18a6.38,6.38,0,0,1-.66-.15,18.87,18.87,0,0,1-2.33-.69l-.6-.25-.27-.12a6.45,6.45,0,0,1-.74-.38c-1-.57-1.5-1.21-1.5-1.88V64.65c0,2.42,7,4.38,15.67,4.38S115.67,67.07,115.67,64.65Z"/><path class="cls-2" d="M115.67,75.31v6.26c0,.68-.54,1.31-1.5,1.88a7.39,7.39,0,0,1-.74.38l-.27.12-.6.25a20.78,20.78,0,0,1-2.33.69l-.65.15h0c-.28.07-.57.12-.87.18l-.66.12-1.19.18a53.54,53.54,0,0,1-13.7,0L92,85.34l-.66-.12h0c-.3-.06-.58-.11-.86-.18a6.38,6.38,0,0,1-.66-.15,18.87,18.87,0,0,1-2.33-.69l-.6-.25-.27-.12a7.39,7.39,0,0,1-.74-.38c-1-.57-1.5-1.21-1.5-1.88V75.31a1.12,1.12,0,0,1,0-.32c.57,2.28,7.34,4.07,15.63,4.07s15.06-1.79,15.63-4.07A1.12,1.12,0,0,1,115.67,75.31Z"/><path class="cls-2" d="M83.31,139.23,100,112.72,42,93.5,25.33,120Z"/><path class="cls-1" d="M116.69,139.23,100,112.72,158,93.5,174.67,120Z"/><circle class="cls-6" cx="45.55" cy="88.48" r="6.81"/><circle class="cls-6" cx="154.45" cy="88.48" r="6.81"/></svg>