<svg id="design" xmlns="http://www.w3.org/2000/svg" viewBox="0 0 200 180"><defs><style>.cls-1{fill:none;stroke:#eaeaea;stroke-width:6px;}.cls-1,.cls-6,.cls-7{stroke-miterlimit:10;}.cls-2{fill:#eaeaea;}.cls-3{fill:#fbb040;}.cls-4{fill:#fff;}.cls-5,.cls-7{fill:#0f89db;}.cls-6{fill:#005eb8;stroke:#005eb8;}.cls-7{stroke:#0f89db;}</style></defs><polyline class="cls-1" points="141.31 27.67 169.9 27.67 169.9 89.22 139.5 89.22"/><polygon class="cls-2" points="142.56 78.75 124.43 89.22 142.56 99.7 142.56 78.75"/><line class="cls-1" x1="30.1" y1="27.67" x2="126.24" y2="27.67"/><polygon class="cls-2" points="123.18 38.14 141.31 27.67 123.18 17.2 123.18 38.14"/><polyline class="cls-1" points="30.1 111.06 30.1 89.74 85.7 89.74"/><polygon class="cls-2" points="40.57 108 30.1 126.13 19.63 108 40.57 108"/><line class="cls-1" x1="126.65" y1="151.29" x2="49.42" y2="151.29"/><polygon class="cls-2" points="123.59 140.82 141.72 151.29 123.59 161.76 123.59 140.82"/><circle class="cls-3" cx="27.66" cy="27.06" r="26.81"/><path class="cls-4" d="M32.14,40.54v1.9a2.62,2.62,0,0,1-2.62,2.62H25.79c-1.28,0-2.62-1-2.62-3.07V40.54Z"/><path class="cls-4" d="M34.2,18.92a10.49,10.49,0,0,0-16.88,5.91,10.44,10.44,0,0,0,4,10.59A4.57,4.57,0,0,1,23,38.26h9.2a5.35,5.35,0,0,1,1.89-3,10.58,10.58,0,0,0,4-8.25A10.31,10.31,0,0,0,34.2,18.92Z"/><path class="cls-3" d="M34.37,25.62a.67.67,0,0,1-1.34,0,2.46,2.46,0,0,0-2.47-2.47.67.67,0,0,1,0-1.34A3.81,3.81,0,0,1,34.37,25.62Z"/><path class="cls-3" d="M34.37,25.62a.67.67,0,0,1-1.34,0,2.46,2.46,0,0,0-2.47-2.47.67.67,0,0,1,0-1.34A3.81,3.81,0,0,1,34.37,25.62Z"/><rect class="cls-4" x="26.51" y="9.06" width="2.23" height="5.18"/><rect class="cls-4" x="41.92" y="24.47" width="2.23" height="5.18" transform="translate(70.09 -15.98) rotate(90)"/><rect class="cls-4" x="11.18" y="24.47" width="2.23" height="5.18" transform="translate(39.35 14.76) rotate(90)"/><rect class="cls-4" x="15.65" y="13.54" width="2.23" height="5.18" transform="translate(40.02 15.69) rotate(135)"/><rect class="cls-4" x="15.65" y="35.33" width="2.23" height="5.18" transform="translate(1.8 76.59) rotate(-135)"/><rect class="cls-4" x="37.44" y="13.54" width="2.23" height="5.18" transform="translate(22.7 -22.53) rotate(45)"/><rect class="cls-4" x="37.44" y="35.33" width="2.23" height="5.18" transform="translate(-15.53 38.37) rotate(-45)"/><circle class="cls-5" cx="163.65" cy="27.06" r="22.34"/><circle class="cls-6" cx="172.34" cy="152.94" r="26.81"/><path class="cls-4" d="M168,38h-6.26V26c0-1.47,0-2.82.09-4a12.92,12.92,0,0,1-1.43,1.47l-2.6,2.14-3.2-3.93,7.84-6.39H168Z"/><circle class="cls-7" cx="100" cy="89.74" r="22.34"/><path class="cls-4" d="M108.16,100.72H91.58V96.65L97.16,91q2.39-2.49,3.12-3.41a7.27,7.27,0,0,0,1-1.57,3.29,3.29,0,0,0,.29-1.38,1.79,1.79,0,0,0-.57-1.4,2.35,2.35,0,0,0-1.63-.52,4.44,4.44,0,0,0-2.18.62,16,16,0,0,0-2.49,1.82l-3.39-4a18.2,18.2,0,0,1,3-2.26,10.7,10.7,0,0,1,2.61-1,13,13,0,0,1,3.18-.36,9.43,9.43,0,0,1,4,.79,6.23,6.23,0,0,1,2.71,2.22,5.76,5.76,0,0,1,1,3.24,8.36,8.36,0,0,1-1.38,4.73,14.86,14.86,0,0,1-1.86,2.32c-.78.81-2.43,2.36-5,4.63v.15h8.64Z"/><circle class="cls-5" cx="30.1" cy="151.29" r="22.34"/><path class="cls-4" d="M37.49,144.38a5.41,5.41,0,0,1-1.3,3.65,7.32,7.32,0,0,1-3.75,2.21v.1q5.72.72,5.72,5.4a5.86,5.86,0,0,1-2.52,5,11.77,11.77,0,0,1-7,1.83,20.27,20.27,0,0,1-3.42-.27,17.86,17.86,0,0,1-3.39-1v-5.12a13.25,13.25,0,0,0,3.05,1.13,12.84,12.84,0,0,0,2.87.37,5.87,5.87,0,0,0,3-.57,2,2,0,0,0,.93-1.79,2,2,0,0,0-.49-1.45,3.08,3.08,0,0,0-1.56-.76,12,12,0,0,0-2.81-.26H25.36v-4.64H26.8c3.14,0,4.7-.8,4.7-2.41a1.48,1.48,0,0,0-.69-1.34,3.52,3.52,0,0,0-1.87-.44,8.53,8.53,0,0,0-4.53,1.47l-2.56-4.13a12.63,12.63,0,0,1,3.71-1.78,16.29,16.29,0,0,1,4.35-.53,9.57,9.57,0,0,1,5.56,1.41A4.46,4.46,0,0,1,37.49,144.38Z"/><ellipse class="cls-4" cx="172.34" cy="148.15" rx="4.8" ry="1.92"/><path class="cls-4" d="M172.34,152c-2.65,0-4.8-.86-4.8-1.92v2.88c0,1.06,2.15,1.92,4.8,1.92s4.79-.86,4.79-1.92v-2.88C177.13,151.12,175,152,172.34,152Z"/><path class="cls-4" d="M172.34,156.78c-2.65,0-4.8-.86-4.8-1.92v2.88c0,1,2.15,1.92,4.8,1.92s4.79-.87,4.79-1.92v-2.88C177.13,155.92,175,156.78,172.34,156.78Z"/><path class="cls-4" d="M188.31,152.94l.09-.19c1.56-3.34,1.58-6.5.06-9.12s-4.29-4.2-8-4.51l-.2,0-.12-.17c-2.21-3-5-4.69-7.8-4.69s-5.58,1.67-7.79,4.69l-.12.17h-.21c-3.71.32-6.48,1.88-8,4.52s-1.49,5.77.06,9.12l.09.19-.09.19c-1.55,3.35-1.58,6.51-.06,9.13s4.29,4.2,8,4.51l.2,0,.12.16c2.21,3,5,4.69,7.79,4.69s5.59-1.66,7.8-4.68l.12-.17.2,0c3.72-.31,6.49-1.87,8-4.52s1.49-5.77-.06-9.12Zm-4.33,4,.13-1.48c.08-1,.12-1.76.12-2.52s0-1.56-.12-2.52L184,149l.92,1.15a20.75,20.75,0,0,1,1.79,2.62l.12.22-.12.22a18.8,18.8,0,0,1-1.79,2.62Zm3.83-6.36-.27.9-.53-.78a24.81,24.81,0,0,0-3.42-4.06l-.1-.09,0-.13a23.71,23.71,0,0,0-1.84-5.07l-.44-.85.93.21a7.38,7.38,0,0,1,5.7,9.87Zm-5.62,8.1a26.26,26.26,0,0,1-4.58,3.39,26.62,26.62,0,0,1-5.14,2.25l-.14,0-.13,0a27,27,0,0,1-5.14-2.25,26.53,26.53,0,0,1-4.58-3.39l-.1-.1,0-.14a27.73,27.73,0,0,1,0-11l0-.15.11-.1a25.23,25.23,0,0,1,9.72-5.64l.14,0,.14,0a27.73,27.73,0,0,1,5.13,2.25,27,27,0,0,1,4.58,3.4l.1.09,0,.14a27.77,27.77,0,0,1,0,11l0,.14Zm-1.67-14.58c-.8-.57-1.53-1-2.24-1.46s-1.41-.76-2.27-1.15l-1.36-.62,1.48-.23a19.63,19.63,0,0,1,3-.24h.5l.13.21a18.56,18.56,0,0,1,1.47,3l.56,1.42Zm-2.84-5a25,25,0,0,0-5.22.95l-.13,0-.12,0a25,25,0,0,0-5.22-.95l-1-.07.66-.69a7.14,7.14,0,0,1,11.28,0l.67.69Zm-9.13,1.53,1.48.22-1.36.62c-.88.4-1.62.78-2.28,1.16s-1.44.89-2.24,1.46l-1.23.89.56-1.42a18.55,18.55,0,0,1,1.47-3l.13-.21h.5A19.94,19.94,0,0,1,168.55,140.64ZM160.69,149l-.13,1.47c-.08,1-.12,1.76-.12,2.52s0,1.57.12,2.52l.13,1.48-.92-1.16a20.06,20.06,0,0,1-1.79-2.62l-.12-.22.12-.22a20.06,20.06,0,0,1,1.79-2.62Zm2.36-7.6a23,23,0,0,0-1.84,5.08l0,.13-.1.09a24.75,24.75,0,0,0-3.42,4l-.53.78-.27-.9a7.38,7.38,0,0,1,5.7-9.87l.93-.21Zm-6.19,14,.27-.9.53.78a24.75,24.75,0,0,0,3.42,4.05l.1.09,0,.13a22.86,22.86,0,0,0,1.84,5.07l.44.85-.94-.21a7.38,7.38,0,0,1-5.69-9.86Zm7.29,6.47a26.21,26.21,0,0,0,2.24,1.46,23.58,23.58,0,0,0,2.26,1.15L170,165l-1.48.23a19.86,19.86,0,0,1-3,.24h-.48l-.13-.21a18.55,18.55,0,0,1-1.47-3l-.56-1.41Zm2.84,5a24.41,24.41,0,0,0,5.21-1l.13,0,.13,0a24.61,24.61,0,0,0,5.22,1l1,.07-.67.68a7.13,7.13,0,0,1-11.27,0l-.67-.69Zm7.67-1.76,1.36-.63a23.58,23.58,0,0,0,2.26-1.15,26.21,26.21,0,0,0,2.24-1.46l1.23-.88-.56,1.41a17.75,17.75,0,0,1-1.47,3l-.13.21h-.49a19.94,19.94,0,0,1-3-.24Zm7-.49a23.19,23.19,0,0,0,1.84-5.07l0-.13.09-.09a24.33,24.33,0,0,0,3.43-4.05l.53-.78.27.89a7.38,7.38,0,0,1-5.69,9.87l-.94.21Z"/></svg>