<svg id="design" xmlns="http://www.w3.org/2000/svg" xmlns:xlink="http://www.w3.org/1999/xlink" viewBox="0 0 200 180"><defs><style>.cls-1{fill:none;}.cls-2{fill:#0f89db;stroke:#0f89db;}.cls-2,.cls-3,.cls-6{stroke-miterlimit:10;}.cls-3{fill:#005eb8;stroke:#005eb8;}.cls-4{fill:#9ad9fc;}.cls-5{clip-path:url(#clip-path);}.cls-6{fill:#c3e7fc;stroke:#c3e9f4;}.cls-7{fill:#bebebf;}.cls-8{fill:#eaeaea;}.cls-9{fill:#fbb040;}.cls-10{fill:#ed8b00;}.cls-11{fill:#f4f4f4;}.cls-12{fill:#70bef2;}.cls-13{clip-path:url(#clip-path-2);}</style><clipPath id="clip-path"><ellipse class="cls-1" cx="167.06" cy="89.96" rx="26.53" ry="27.39"/></clipPath><clipPath id="clip-path-2"><ellipse class="cls-1" cx="149.2" cy="22.59" rx="21.71" ry="22.41"/></clipPath></defs><title>roi</title><path class="cls-2" d="M87.3,78.23,79,82.64c-.44.22-.88.55-1.32.77A28.47,28.47,0,0,0,95.56,89.8a27.92,27.92,0,0,0,17.84-6.28,9.58,9.58,0,0,0-1.54-.88l-9-4.19a3.45,3.45,0,0,1-1.87-3V71.84a7.77,7.77,0,0,0,.77-1,20.3,20.3,0,0,0,2.75-5.29A2.82,2.82,0,0,0,106.57,63V59.39a2.58,2.58,0,0,0-.88-2V52s1.1-8.15-10.46-8.15S84.76,52,84.76,52v5.29a2.76,2.76,0,0,0-.88,2v3.64a3,3,0,0,0,1.21,2.31A18.15,18.15,0,0,0,88.73,72v3.2C89.17,76.47,88.51,77.46,87.3,78.23Z"/><path class="cls-3" d="M95.23,35.81a27,27,0,0,0-17.62,47.6,4.55,4.55,0,0,1,1.21-.77l7.93-4.41a3.66,3.66,0,0,0,1.87-2.87V72a16.65,16.65,0,0,1-3.19-6.72A2.77,2.77,0,0,1,84.33,63V59.28a2.94,2.94,0,0,1,.77-2V52s-1-8.15,9.91-8.15S104.92,52,104.92,52v5.29a2.66,2.66,0,0,1,.77,2v3.64a2.47,2.47,0,0,1-2,2.53A21.61,21.61,0,0,1,101,70.75a3.83,3.83,0,0,0-.66,1v3.42a3.07,3.07,0,0,0,1.87,3l8.59,4.19a10,10,0,0,1,1.43.88A27.91,27.91,0,0,0,122,62.91C121.55,48.26,109.88,35.92,95.23,35.81Z"/><path class="cls-4" d="M167.06,62.36a27.29,27.29,0,0,0-18,48,7.06,7.06,0,0,1,2.36-2l9.51-3.93c.5-.21.86-1.14,1.29-1.64a.83.83,0,0,0-.72-1.14h-6.79a15.33,15.33,0,0,1-4.22-1c-1.14-.5-1.5-1.14-.72-2,2-2.72,6.08-9.37,6.22-16.31,0,0,.21-10.44,10.73-10.66A10.59,10.59,0,0,1,177,78.31a16.84,16.84,0,0,1,1.29,5.36c.5,6.51,3.72,12.44,5.36,15.09a2.07,2.07,0,0,1-.5,2.57,5.3,5.3,0,0,1-3.29.5h-6.79c-.57,0-.86.86-.5,1.36a9.79,9.79,0,0,0,1,.72l7.87,4.86a7.81,7.81,0,0,1,2.72,2.57.14.14,0,0,1,.14.14,27.66,27.66,0,0,0-17.24-49.14Z"/><g class="cls-5"><path class="cls-6" d="M151.54,108.49l9.51-3.93c.5-.21.86-1.14,1.29-1.64a.83.83,0,0,0-.72-1.14h-6.79a15.33,15.33,0,0,1-4.22-1c-1.14-.5-1.5-1.14-.72-2,2-2.72,6.08-9.37,6.22-16.31,0,0,.21-10.44,10.73-10.66a10.59,10.59,0,0,1,10.3,6.65,16.84,16.84,0,0,1,1.29,5.36c.5,6.51,3.72,12.44,5.36,15.09a2.07,2.07,0,0,1-.5,2.57,5.3,5.3,0,0,1-3.29.5h-6.79c-.57,0-.86.86-.5,1.36a9.79,9.79,0,0,0,1,.72l7.87,4.86a8.52,8.52,0,0,1,2.72,2.57,27.9,27.9,0,0,1-17.31,6A27.09,27.09,0,0,1,149.18,111,3.92,3.92,0,0,1,151.54,108.49Z"/></g><path class="cls-7" d="M15.58,72.12l-.85-7.68H0V56.77H21.6l2.07,18.77Z"/><path class="cls-8" d="M130.93,72.12H73.25l-2.56,38.59,2.56,38.59H122.4ZM84.8,141.62H77.09v-15.5h8.28Zm.85-23.17H77.09V103h9.13Zm.85-23.17H77.09V79.79h10Zm13.67,46.33h-7.7l.57-15.5h8.27Zm1.71-23.17H93.32l.57-15.5H103Zm1.71-23.17h-9.4l.57-15.5h10Zm12,46.33h-7.68L109,126.1h8.25Zm2.56-23.17h-8.53l1.14-15.5h9.1Zm2.56-23.17h-9.38l1.14-15.5h10Z"/><path class="cls-8" d="M111.84,157H73.25l-2.56,3.84,2.56,3.84h38.59Z"/><path class="cls-8" d="M24,149.29H73.3V72.12H15.58l7.68,69.53a11.51,11.51,0,0,0,.7,23h49.3V157H24a3.84,3.84,0,0,1,0-7.68h0Zm45.46-7.67H61.71l-.57-15.5h8.28v15.5Zm0-23.17h-8.6L60.29,103h9.13v15.5Zm0-38.66v15.5H60l-.57-15.5ZM54,141.62H46.3l-1.14-15.5h8.27Zm-.85-23.17H44.63L43.49,103h9.12ZM51.76,79.79l.57,15.5h-9.4l-1.14-15.5ZM38.65,141.62H31l-1.71-15.5h8.25Zm-1.71-23.17H28.41L26.7,103h9.1ZM34.09,79.79l1.14,15.5H25.85l-1.71-15.5Z"/><path class="cls-7" d="M34.66,157a11.51,11.51,0,1,0,11.51,11.51h0A11.52,11.52,0,0,0,34.66,157Z"/><circle class="cls-7" cx="111.84" cy="168.49" r="11.51"/><path class="cls-9" d="M82.32,11V22.15a3.43,3.43,0,0,1-3.43,3.43H48.42A3.43,3.43,0,0,1,45,22.15V11Z"/><polygon class="cls-10" points="82.31 6.04 82.31 11.02 45.27 11.02 44.99 11.02 44.99 6.04 45.27 6.04 82.31 6.04"/><path class="cls-9" d="M82.32,3.43V6H45V3.43A3.43,3.43,0,0,1,48.42,0H78.88a3.43,3.43,0,0,1,3.44,3.42Z"/><path class="cls-11" d="M75.34,15.73a2.82,2.82,0,0,1,0,5.59,2.66,2.66,0,0,1-2.16-1,2.66,2.66,0,0,1-2.18,1,2.82,2.82,0,1,1,2.16-4.54A2.82,2.82,0,0,1,75.34,15.73Z"/><path class="cls-10" d="M185.33,110.68c1.2-2.6,3.8-5.1,6.9-5.1,4.2,0,7.2,3.5,7.7,7.5a5.41,5.41,0,0,1-.3,2.9,13.73,13.73,0,0,1-4,6.4l-10.3,8.8-10.3-8.8a11.51,11.51,0,0,1-4-6.4,10.61,10.61,0,0,1-.3-2.9c.4-4,3.5-7.5,7.7-7.5A8.14,8.14,0,0,1,185.33,110.68Z"/><path class="cls-12" d="M149.2,0a22.33,22.33,0,0,0-14.75,39.27,5.78,5.78,0,0,1,1.93-1.64l7.78-3.22c.41-.18.7-.94,1.05-1.35a.68.68,0,0,0-.59-.94h-5.56a12.54,12.54,0,0,1-3.45-.82c-.94-.41-1.23-.94-.59-1.64,1.64-2.22,5-7.67,5.09-13.34,0,0,.18-8.54,8.78-8.72a8.66,8.66,0,0,1,8.44,5.4,13.78,13.78,0,0,1,1.05,4.39,29.19,29.19,0,0,0,4.39,12.35,1.69,1.69,0,0,1-.41,2.11,4.33,4.33,0,0,1-2.69.41h-5.56c-.47,0-.7.7-.41,1.11a8,8,0,0,0,.82.59L161,38a6.39,6.39,0,0,1,2.22,2.11.11.11,0,0,1,.12.12,22.27,22.27,0,0,0,8.37-17.38A22.44,22.44,0,0,0,149.68,0Z"/><g class="cls-13"><path class="cls-4" d="M136.5,37.74l7.78-3.22c.41-.18.7-.94,1.05-1.35a.68.68,0,0,0-.59-.94h-5.56a12.54,12.54,0,0,1-3.45-.82c-.94-.41-1.23-.94-.59-1.64,1.64-2.22,5-7.67,5.09-13.34,0,0,.18-8.54,8.78-8.72a8.66,8.66,0,0,1,8.43,5.44,13.78,13.78,0,0,1,1.05,4.39,29.19,29.19,0,0,0,4.39,12.35,1.69,1.69,0,0,1-.41,2.11,4.33,4.33,0,0,1-2.69.41h-5.56c-.47,0-.7.7-.41,1.11a8,8,0,0,0,.82.59l6.44,4a7,7,0,0,1,2.22,2.11,22.82,22.82,0,0,1-14.16,4.92,22.16,22.16,0,0,1-14.57-5.33A3.2,3.2,0,0,1,136.5,37.74Z"/></g></svg>