<?xml version="1.0" encoding="utf-8"?>
<!-- Generator: Adobe Illustrator 21.1.0, SVG Export Plug-In . SVG Version: 6.00 Build 0)  -->
<svg version="1.1" id="design" xmlns="http://www.w3.org/2000/svg" xmlns:xlink="http://www.w3.org/1999/xlink" x="0px" y="0px"
	 width="100px" height="100px" viewBox="0 0 100 100" style="enable-background:new 0 0 100 100;" xml:space="preserve">
<style type="text/css">
	.st0{fill:url(#SVGID_1_);}
	.st1{fill:url(#SVGID_2_);}
	.st2{fill:url(#SVGID_3_);}
	.st3{fill:url(#SVGID_4_);}
	.st4{fill:url(#SVGID_5_);}
	.st5{fill:url(#SVGID_6_);}
</style>
<g>
	<linearGradient id="SVGID_1_" gradientUnits="userSpaceOnUse" x1="18.24" y1="97.27" x2="18.24" y2="3.6227">
		<stop  offset="0" style="stop-color:#FBB040"/>
		<stop  offset="1" style="stop-color:#ED8B00"/>
	</linearGradient>
	<polygon class="st0" points="17.9,75.1 24.6,81.4 28.6,77.1 14.9,64.3 1.2,77.1 5.2,81.4 12,75 12,93.8 35.3,93.8 35.3,88 17.9,88 
			"/>
	<linearGradient id="SVGID_2_" gradientUnits="userSpaceOnUse" x1="80.71" y1="103.27" x2="80.71" y2="9.6227">
		<stop  offset="0" style="stop-color:#FBB040"/>
		<stop  offset="1" style="stop-color:#ED8B00"/>
	</linearGradient>
	<polygon class="st1" points="81.1,31.9 74.4,25.6 70.4,29.9 84.1,42.8 97.8,29.9 93.8,25.6 87,32 87,13.2 63.7,13.2 63.7,19 
		81.1,19 	"/>
	<linearGradient id="SVGID_3_" gradientUnits="userSpaceOnUse" x1="28.9866" y1="97.27" x2="28.9866" y2="3.6227">
		<stop  offset="0" style="stop-color:#FBB040"/>
		<stop  offset="1" style="stop-color:#ED8B00"/>
	</linearGradient>
	<path class="st2" d="M29,55.8c14.9,0,27.1-12.2,27.1-27.1S43.9,1.6,29,1.6S1.9,13.7,1.9,28.7S14,55.8,29,55.8z M29,7.6
		c11.6,0,21.1,9.5,21.1,21.1S40.6,49.8,29,49.8c-11.6,0-21.1-9.5-21.1-21.1S17.4,7.6,29,7.6z"/>
	<linearGradient id="SVGID_4_" gradientUnits="userSpaceOnUse" x1="28.9866" y1="97.27" x2="28.9866" y2="3.6227">
		<stop  offset="0" style="stop-color:#FBB040"/>
		<stop  offset="1" style="stop-color:#ED8B00"/>
	</linearGradient>
	<path class="st3" d="M26,42v2.3h6v-2.7c0.5-0.1,0.9-0.3,1.4-0.5c1.4-0.6,2.7-1.6,3.5-2.9c0.8-1.3,1.2-2.7,1.2-4.2
		c0.1-1.5-0.4-3.1-1.3-4.3c-1.3-1.4-2.9-2.5-4.7-3.2c-1.5-0.6-2.9-1.3-4.3-2.2c-0.5-0.3-0.8-0.8-0.8-1.4c0-0.5,0.2-0.9,0.6-1.2
		c0.6-0.4,1.3-0.5,2-0.5c2.2,0.1,4.3,0.7,6.3,1.7l2.1-5.3c-1.9-0.9-4-1.5-6.1-1.7v-2.3h-6v2.6c-1.2,0.3-2.3,0.9-3.3,1.5
		C21,18.9,20,21,20.1,23.2c0,1.1,0.2,2.2,0.6,3.3c0.4,0.9,1.1,1.8,1.8,2.4c1.2,0.9,2.4,1.7,3.8,2.2c1.9,0.8,3,1.4,3.5,1.7
		c0.4,0.2,0.7,0.5,0.9,0.8c0.2,0.3,0.3,0.6,0.3,0.9c0,0.6-0.3,1.1-0.7,1.4c-0.7,0.4-1.5,0.6-2.3,0.5c-1.4,0-2.7-0.2-4-0.6
		c-1.4-0.4-2.8-0.9-4.2-1.6v6.2c1.2,0.6,2.4,1,3.7,1.3C24.4,41.8,25.2,41.9,26,42z"/>
	<linearGradient id="SVGID_5_" gradientUnits="userSpaceOnUse" x1="69.6965" y1="96.27" x2="69.6965" y2="2.6227">
		<stop  offset="0" style="stop-color:#FBB040"/>
		<stop  offset="1" style="stop-color:#ED8B00"/>
	</linearGradient>
	<path class="st4" d="M93.1,54.5H46.2c-3.3,0-6,2.7-6,6v30.8c0,3.3,2.7,6,6,6h46.9c3.3,0,6-2.7,6-6V60.5
		C99.1,57.2,96.5,54.5,93.1,54.5z M93.1,60.5l0,8H46.2v-8H93.1z M46.2,91.3V74.4h46.9l0,16.9H46.2z M93.1,94.3v-3c0,0,0,0,0,0
		L93.1,94.3z"/>
	<linearGradient id="SVGID_6_" gradientUnits="userSpaceOnUse" x1="57.2715" y1="96.27" x2="57.2715" y2="2.6227">
		<stop  offset="0" style="stop-color:#FBB040"/>
		<stop  offset="1" style="stop-color:#ED8B00"/>
	</linearGradient>
	<rect x="51.1" y="79.2" class="st5" width="12.3" height="6"/>
</g>
</svg>
