<?xml version="1.0" encoding="utf-8"?>
<!-- Generator: Adobe Illustrator 24.2.1, SVG Export Plug-In . SVG Version: 6.00 Build 0)  -->
<svg version="1.1" id="design" xmlns="http://www.w3.org/2000/svg" xmlns:xlink="http://www.w3.org/1999/xlink" x="0px" y="0px"
	 viewBox="0 0 100 100" style="enable-background:new 0 0 100 100;" xml:space="preserve">
<style type="text/css">
	.st0{fill:#222222;}
	.st1{fill:#886FF9;}
</style>
<path class="st0" d="M0,50.6c0.5-0.6,0.4-1.3,0.6-2c0.9-3.4,3-6.4,6-8.2c0.5-0.2,0.7-0.7,0.5-1.2c-2.3-11.5,5.1-22.6,16.5-25
	c0.6-0.1,1.1-0.2,1.7-0.3c3.8-0.5,7.7,0.2,11.2,1.9l0.8,0.4c0,0,0.1,0,0.1,0c8.5-13.7,26.4-18,40.1-9.5c4.9,3,8.8,7.5,11.2,12.7
	c3.1,6.3,3.7,13.5,1.8,20.2c0.3,0.4,0.8,0.4,1.1,0.6c4.3,2,7.3,6,8.1,10.7c0,0.2-0.1,0.4,0.2,0.5v4.1c-0.3,0.3-0.3,0.8-0.4,1.2
	c-1.3,6.2-6.7,10.7-13,11c-3.2,0.2-6.3,0.1-9.5,0.1h-1.1v9.9h5.3c-0.2,1.3-0.2,2.6,0,3.9c-2.3,0-4.7,0-7,0c-1.6,0-2.3-0.7-2.3-2.3
	c0-3.4,0-6.9,0-10.3v-1.1h-9.6v14.5c-1.3-0.2-2.6-0.3-3.9-0.1V67.7H41.3v8.6c-1.3-0.3-2.6-0.3-3.8,0v-8.6H28c-0.2,0.3-0.1,0.7-0.1,1
	c0,3.4,0,6.8,0,10.2c0,1.9-0.6,2.5-2.5,2.5c-2.3,0-4.5,0-6.8,0c0.2-1.3,0.2-2.6-0.1-3.8h5.5v-9.8c-0.3-0.3-0.7-0.1-1-0.1
	c-3.2,0-6.4,0.1-9.7-0.1C7,67.2,1.8,62.7,0.4,56.6c-0.1-0.4,0-0.8-0.4-1.2L0,50.6z M86.6,39c1.5-4,1.6-9,0.2-14.2
	C83.9,14.6,74.6,6.8,64,6.3s-18.5,4.1-23.8,13.1c-1,1.6-1.9,1.9-3.4,0.9c-7.9-5-18.4-2.7-23.5,5.3c-1.1,1.7-1.9,3.6-2.3,5.6
	c-0.6,2.6-0.6,5.3,0.1,7.8h7.6c1.5,0,2.4,0.7,2.4,1.9s-0.9,2-2.4,2c-2.5,0-5,0-7.4,0c-1.1,0-2.1,0.3-3,1c-3.7,2.5-5.4,7.9-3.9,12.6
	C5.7,61,9.9,64,14.6,63.8h70.7c0.8,0,1.6,0,2.4-0.2c5.7-1.2,9.3-6.7,8.1-12.4c-0.3-1.4-0.9-2.8-1.8-4c-1.7-2.8-4.8-4.5-8.1-4.4
	c-2.5,0.1-5,0-7.5,0c-1.1-0.1-1.9-1-1.9-2.1c0-0.7,0.5-1.3,1.1-1.7c0.4-0.1,0.8-0.2,1.2-0.1L86.6,39z"/>
<path class="st1" d="M58.6,82.2c1.3-0.2,2.6-0.2,3.9,0.1c3.8,1.2,6,4.1,6,7.7c0,4.3-3.5,7.8-7.9,7.8s-7.8-3.5-7.8-7.9
	c0-3.3,2.1-6.2,5.2-7.4C58.2,82.4,58.5,82.4,58.6,82.2z"/>
<path class="st1" d="M37.5,76.4c1.3-0.3,2.6-0.3,3.8,0c3,1,5.1,2.9,5.6,6c0.6,3.3-0.2,6-3.5,8.3c-2.7,1.7-6.2,1.5-8.8-0.4
	c-2.2-1.5-3.3-4-3.1-6.7C31.6,80.1,34.1,77.1,37.5,76.4z"/>
<path class="st1" d="M81.5,81.5c-0.2-1.3-0.2-2.6,0-3.9c0.5-1.2,1.3-2.4,2.1-3.4c1.9-2,4.8-2.9,7.5-2.1c2.9,0.7,5.2,3,5.7,6
	c0.9,4.2-1.8,8.3-6,9.2c-0.4,0.1-0.9,0.2-1.3,0.2C85.8,87.5,82.4,85.1,81.5,81.5z"/>
<path class="st1" d="M18.4,77.6c0.3,1.3,0.4,2.6,0.1,3.8c-0.6,1.8-1.7,3.4-3.3,4.6c-3.6,2.4-8.4,1.5-10.8-2.1s-1.5-8.4,2.1-10.8
	s8.4-1.5,10.8,2.1C17.8,76,18.2,76.8,18.4,77.6z"/>
<path class="st0" d="M50.6,31.5c4.3,0.2,8.4,1.9,11.5,5c0.7,0.6,0.9,1.6,0.4,2.4c-0.4,0.8-1.3,1.2-2.1,1c-0.4-0.1-0.8-0.4-1.2-0.7
	c-5.3-5.1-13.7-5.1-19,0c-0.7,0.9-2,1-2.8,0.3c0,0-0.1-0.1-0.1-0.1c-0.8-0.8-0.7-2,0.3-3C41.1,33.1,45.8,31.3,50.6,31.5z"/>
<path class="st0" d="M57.2,43.4c0.1,0.8-0.4,1.6-1.1,1.9c-0.7,0.4-1.6,0.2-2.1-0.4c-0.8-0.8-1.7-1.3-2.8-1.5c-2-0.5-4.1,0.1-5.5,1.5
	c-0.6,0.7-1.6,0.8-2.3,0.4c-0.7-0.4-1.1-1.2-1-2c0.1-0.5,0.3-0.9,0.6-1.2c3.8-3.6,9.8-3.6,13.6,0C57,42.4,57.2,42.9,57.2,43.4z"/>
<path class="st0" d="M51.7,49.1c0,1.1-0.8,2-1.9,2c0,0-0.1,0-0.1,0c-1.1,0-1.9-0.9-1.9-1.9c0-1.1,0.9-2,2-2
	C50.9,47.2,51.7,48,51.7,49.1z"/>
</svg>
