<svg id="design" xmlns="http://www.w3.org/2000/svg" xmlns:xlink="http://www.w3.org/1999/xlink" viewBox="0 0 56 56"><defs><style>.cls-1{fill:url(#linear-gradient);}.cls-2{fill:#70bbf9;}.cls-3{fill:none;stroke:#333;stroke-linecap:round;stroke-linejoin:round;stroke-width:2px;}</style><linearGradient id="linear-gradient" x1="11.44" y1="56.76" x2="11.44" y2="40.76" gradientUnits="userSpaceOnUse"><stop offset="0" stop-color="#b2deff"/><stop offset="0" stop-color="#70bbf9"/><stop offset="0.14" stop-color="#70bbf9" stop-opacity="0.72"/><stop offset="0.27" stop-color="#70bbf9" stop-opacity="0.46"/><stop offset="0.4" stop-color="#70bbf9" stop-opacity="0.26"/><stop offset="0.51" stop-color="#70bbf9" stop-opacity="0.12"/><stop offset="0.59" stop-color="#70bbf9" stop-opacity="0.03"/><stop offset="0.65" stop-color="#70bbf9" stop-opacity="0"/></linearGradient></defs><rect class="cls-1" x="1" y="38.5" width="20.88" height="16.5" rx="2"/><rect class="cls-2" x="24.2" y="26.34" width="26.07" height="24.78" rx="2.63"/><rect class="cls-3" x="1" y="38.5" width="20.88" height="16.5" rx="2"/><polyline class="cls-3" points="1 43 10.12 43 13.25 38.5"/><rect class="cls-3" x="17.52" y="1" width="37.48" height="29.63" rx="3.59"/><polyline class="cls-3" points="17.52 9.08 33.89 9.08 39.51 1"/><line class="cls-3" x1="39.51" y1="9.08" x2="55" y2="9.08"/><line class="cls-3" x1="15.25" y1="43" x2="21.89" y2="43"/><polyline class="cls-3" points="33.01 20.09 35.12 22.2 39.51 17.8"/><path class="cls-3" d="M27,46.75h1.25a8,8,0,0,0,8-8V35.17"/><polyline class="cls-3" points="33.44 38.02 36.26 35.2 39.08 38.02"/></svg>