<svg id="design" xmlns="http://www.w3.org/2000/svg" xmlns:xlink="http://www.w3.org/1999/xlink" viewBox="0 0 100 100"><defs><style>.cls-1{fill:url(#linear-gradient);}</style><linearGradient id="linear-gradient" x1="50" y1="100" x2="50" gradientUnits="userSpaceOnUse"><stop offset="0" stop-color="#fbb040"/><stop offset="1" stop-color="#ed8b00"/></linearGradient></defs><path class="cls-1" d="M95,19V18H65.69a2.51,2.51,0,0,0,0,.27q0,13.34,0,26.67a1.82,1.82,0,0,0,.56,1.14c3.5,3.55,7,7.05,10.54,10.6A2.22,2.22,0,0,1,77.34,58c.07,1.39,0,2.8,0,4.2a8.49,8.49,0,0,1-7.23,8.25c-2.86.34-7.78.16-10.67.21H57.69C56,60.29,50.47,53,40.78,49.06c-.57-.23-.6-.56-.6-1q0-5.87,0-11.72c0-.25.05-.5.07-.81H46V6.16H40.16V0H22.6V1.22q0,23.21,0,46.41a1.47,1.47,0,0,1-1.06,1.63C12,53.39,6.39,60.59,5.2,71a26.2,26.2,0,0,0,20,28.29c1.32.32,2.68.51,4,.76h4.29a6.91,6.91,0,0,1,.76-.17A26.11,26.11,0,0,0,54.87,85.6a25.62,25.62,0,0,0,2.76-9h1c2.7,0,7.41,0,10.11,0a14.53,14.53,0,0,0,13.9-10.71,24.51,24.51,0,0,0,.56-4.53c.1-1.33-.33-2.83.15-4s1.8-2,2.76-3q4.06-4.08,8.16-8.14A2.05,2.05,0,0,0,95,44.61Q94.94,31.82,95,19ZM39.54,92.45a20.71,20.71,0,0,1-7.93,1.69,21.94,21.94,0,0,1-8.2-1.6,1.15,1.15,0,0,1-.82-1.3,8.81,8.81,0,1,1,17.61.2A.93.93,0,0,1,39.54,92.45ZM31.46,70.68a2.93,2.93,0,1,1,2.86-3A3,3,0,0,1,31.46,70.68ZM45.82,88.23c-1.92-6.74-6.21-10.6-13-11.72a9.16,9.16,0,0,0,5.69-3.63,8.35,8.35,0,0,0,1.54-6.47,8.78,8.78,0,0,0-17.38.17c-.72,4.46,2,8.17,7.39,10C23.2,77.64,18.88,81.47,17,88.22A20.59,20.59,0,0,1,10.93,72,20.93,20.93,0,0,1,28.47,53.21V5.87h5.84V12h5.81v5.85H34.41v5.87h5.72V29.6H34.39V53.24C43.92,55.46,50.16,61,51.69,71,52.7,77.59,50.48,83.29,45.82,88.23Zm43.25-46a2.29,2.29,0,0,1-.59,1.42c-2.48,2.54-5,5-7.51,7.54-.21.21-.42.39-.71.65l-3.39-3.41c-1.62-1.62-3.24-3.22-4.83-4.85a1.79,1.79,0,0,1-.51-1.07c0-6.09,0-12.18,0-18.27,0-.12,0-.24,0-.42H89.09v.92C89.09,30.58,89.11,36.41,89.07,42.24Z"/></svg>