<svg id="Layer_1" data-name="Layer 1" xmlns="http://www.w3.org/2000/svg" viewBox="0 0 210 210"><defs><style>.cls-1{fill:#eee;stroke:#fff;stroke-width:9.76px;}.cls-2{fill:none;stroke:#f2eded;stroke-width:2.44px;}.cls-3{fill:#103159;}.cls-4{fill:#f48900;}.cls-5{fill:#ffb038;}.cls-6{fill:#1aa1fc;}.cls-7{fill:#ec8b00;}.cls-8{fill:#fff;}.cls-9{fill:#005eb8;}.cls-10{fill:#0f8ada;}</style></defs><title>-</title><g id="Rectangle-290"><path id="path-1" class="cls-1" d="M102.56,5h4.88A97.53,97.53,0,0,1,205,102.56v4.88A97.53,97.53,0,0,1,107.44,205h-4.88A97.53,97.53,0,0,1,5,107.44v-4.88A97.53,97.53,0,0,1,102.56,5Z"/><path id="path-1-2" data-name="path-1" class="cls-2" d="M102.56,5h4.88A97.53,97.53,0,0,1,205,102.56v4.88A97.53,97.53,0,0,1,107.44,205h-4.88A97.53,97.53,0,0,1,5,107.44v-4.88A97.53,97.53,0,0,1,102.56,5Z"/></g><path class="cls-3" d="M105.9,62.11a2,2,0,0,1-1.95-1.95v-3.9a1.95,1.95,0,1,0-3.9,0v3.9a1.95,1.95,0,0,1-3.9,0v-3.9a5.84,5.84,0,1,1,11.69,0v3.9A2,2,0,0,1,105.9,62.11Z"/><path class="cls-3" d="M137.07,69.91A2,2,0,0,1,135.12,68v-3.9a1.95,1.95,0,1,0-3.9,0V68a1.95,1.95,0,0,1-3.9,0v-3.9a5.84,5.84,0,0,1,11.69,0V68A2,2,0,0,1,137.07,69.91Z"/><path class="cls-4" d="M146.81,85.49H119.53L121.48,66h23.38Z"/><path class="cls-5" d="M139,85.49H111.74L113.69,66h23.38Z"/><path class="cls-3" d="M129.28,73.8a2,2,0,0,1-1.95-1.95V64.06a1.95,1.95,0,1,0-3.9,0v7.79a1.95,1.95,0,1,1-3.9,0V64.06a5.84,5.84,0,0,1,11.69,0v7.79A2,2,0,0,1,129.28,73.8Z"/><path class="cls-4" d="M115.64,81.6H88.36l1.95-23.38h23.38Z"/><path class="cls-6" d="M74.72,81.6l11.69,39,62.34-3.9,7.79-35.07Z"/><path class="cls-5" d="M107.84,81.6H80.57l1.95-23.38H105.9Z"/><path class="cls-3" d="M98.1,66a2,2,0,0,1-1.95-1.95V56.27a1.95,1.95,0,0,0-3.9,0v7.79a1.95,1.95,0,0,1-3.9,0V56.27a5.84,5.84,0,0,1,11.69,0v7.79A2,2,0,0,1,98.1,66Z"/><circle class="cls-7" cx="86.41" cy="151.74" r="11.69"/><circle class="cls-8" cx="86.41" cy="151.74" r="3.9"/><circle class="cls-7" cx="146.81" cy="151.74" r="11.69"/><circle class="cls-8" cx="146.81" cy="151.74" r="3.9"/><path class="cls-9" d="M158.07,80.38a2,2,0,0,0-1.52-.73H78.62a1.95,1.95,0,1,0,0,3.9H90.68l1.64,7.79H80.57a1.95,1.95,0,0,0,0,3.9H93.14l2.46,11.69H86.41a1.95,1.95,0,0,0,0,3.9h10L98,118.1l-7.77.52a1.95,1.95,0,0,0,.13,3.89h.13l58.45-3.9a2,2,0,0,0,1.77-1.52L158.45,82a2,2,0,0,0-.38-1.64Zm-5.68,11h-9.65l1.73-7.79h9.65Zm-3.47,15.59h-9.64l2.6-11.69h9.65Zm-23.49,9.34.61-5.45h8.38l-1.09,4.92Zm-11.9.79-.66-6.24h9.24l-.63,5.63s0,.05,0,.08Zm26.95-33.52-1.73,7.79H128.21l.87-7.79Zm-16.2,7.79H110.83L110,83.55h15.14Zm-.43,3.9-1.3,11.69H112.47l-1.23-11.69Zm2.62,11.69,1.3-11.69h10.11l-2.6,11.69ZM94.66,83.55h11.43l.82,7.79H96.3Zm2.46,11.69h10.2l1.23,11.69h-9Zm3.28,15.59H109l.68,6.5-7.77.52Zm37,4.65,1-4.65h9.65l-.89,4Z"/><path class="cls-10" d="M90.31,132.25V120.56L73.58,61.06a3.9,3.9,0,0,0-3.75-2.84H49.4a3.9,3.9,0,0,0,0,7.79H64a3.9,3.9,0,0,1,3.75,2.82l14.78,51.73V140H154.6a3.9,3.9,0,0,0,0-7.79Z"/><path class="cls-7" d="M61.09,58.22V66H49.4a3.9,3.9,0,0,1,0-7.79Z"/></svg>