<?xml version="1.0" encoding="utf-8"?>
<!-- Generator: Adobe Illustrator 16.2.0, SVG Export Plug-In . SVG Version: 6.00 Build 0)  -->
<!DOCTYPE svg PUBLIC "-//W3C//DTD SVG 1.1//EN" "http://www.w3.org/Graphics/SVG/1.1/DTD/svg11.dtd">
<svg version="1.1" id="Layer_1" xmlns:sketch="http://www.bohemiancoding.com/sketch/ns"
	 xmlns="http://www.w3.org/2000/svg" xmlns:xlink="http://www.w3.org/1999/xlink" x="0px" y="0px" width="84px" height="84px"
	 viewBox="0 0 84 84" enable-background="new 0 0 84 84" xml:space="preserve">
<g sketch:type="MSShapeGroup">
	<g id="path-1">
		<path fill="#EEEEEE" d="M41.007,81.75c-21.37,0-38.756-17.386-38.756-38.756v-1.988c0-21.37,17.386-38.756,38.756-38.756h1.988
			c21.37,0,38.756,17.386,38.756,38.756v1.988c0,21.37-17.386,38.756-38.756,38.756H41.007z"/>
		<path fill="#FFFFFF" d="M42.995,3.25c20.817,0,37.756,16.938,37.756,37.756v1.988c0,20.818-16.938,37.756-37.756,37.756h-1.988
			c-20.819,0-37.756-16.938-37.756-37.756v-1.988c0-20.819,16.938-37.756,37.756-37.756H42.995 M42.995,1.25h-1.988
			c-21.956,0-39.756,17.8-39.756,39.756v1.988c0,21.957,17.8,39.756,39.756,39.756h1.988c21.957,0,39.756-17.799,39.756-39.756
			v-1.988C82.751,19.05,64.952,1.25,42.995,1.25L42.995,1.25z"/>
	</g>
</g>
<g>
	<path id="path-1_1_" fill="none" stroke="#F2EDED" d="M41.007,1.25h1.988c21.957,0,39.756,17.8,39.756,39.756v1.988
		c0,21.957-17.799,39.756-39.756,39.756h-1.988c-21.956,0-39.756-17.799-39.756-39.756v-1.988C1.251,19.05,19.051,1.25,41.007,1.25z
		"/>
</g>
<g>
	<g>
		<path fill="#005EB8" d="M28.55,55.398l7.583-7.586c1.191-1.188,1.532-2.887,1.064-4.39l3.865-3.866
			c1.154,0.941,2.351,1.695,3.53,2.24c0.089-0.264,0.226-0.512,0.43-0.715l6.468-6.468c0.2-0.199,0.447-0.335,0.72-0.425
			c-0.792-1.699-2.006-3.449-3.598-5.041c-1.627-1.627-3.415-2.861-5.148-3.654c-0.089,0.252-0.221,0.485-0.413,0.677l-6.471,6.472
			c-0.188,0.19-0.417,0.327-0.668,0.42c0.548,1.21,1.319,2.445,2.286,3.629l-3.862,3.865c-1.503-0.468-3.202-0.127-4.394,1.065
			l-7.586,7.581c-1.708,1.712-1.708,4.483,0,6.195C24.067,57.105,26.839,57.105,28.55,55.398L28.55,55.398z M28.55,55.398"/>
	</g>
	<path fill="#005EB8" d="M45.636,41.698c-0.119,0.12-0.196,0.272-0.243,0.444c-0.161,0.579,0.099,1.383,0.707,1.993
		c0.473,0.473,1.086,0.758,1.631,0.758c0.229,0,0.554-0.052,0.801-0.299l2.001-1.996l4.471-4.471
		c0.242-0.248,0.345-0.621,0.276-1.056c-0.072-0.485-0.336-0.975-0.74-1.376c-0.478-0.477-1.086-0.762-1.631-0.762
		c-0.106,0-0.234,0.013-0.362,0.052c-0.153,0.042-0.307,0.115-0.438,0.248L45.636,41.698z M45.636,41.698"/>
	<path fill="#005EB8" d="M35.162,32.323c0.119,0,0.264-0.013,0.409-0.064c0.136-0.042,0.272-0.114,0.391-0.235l6.472-6.466
		c0.106-0.111,0.175-0.248,0.226-0.397c0.192-0.583-0.063-1.413-0.689-2.04c-0.476-0.472-1.086-0.757-1.631-0.757
		c-0.229,0-0.558,0.051-0.799,0.297l-4.266,4.268l-2.206,2.201c-0.532,0.537-0.324,1.652,0.464,2.435
		C34.004,32.038,34.617,32.323,35.162,32.323L35.162,32.323z M35.162,32.323"/>
	<g>
		<path fill="#005EB8" d="M45.469,51.412c0.973-0.094,2.016-0.121,3.105-0.121c0.465,0,0.941,0.004,1.426,0.008
			c1.004,0.008,2.066,0.008,3.074,0c0.484-0.004,0.961-0.008,1.426-0.008c1.09,0,2.133,0.027,3.105,0.121v-2.32H45.469V51.412z
			 M45.469,51.412"/>
		<path fill="#005EB8" d="M54.5,52.092c-0.465,0-0.938,0-1.422,0.004c-1.008,0.008-2.074,0.008-3.082,0
			c-0.484-0.004-0.957-0.004-1.422-0.004c-1.129,0-2.168,0.02-3.105,0.109c-3.094,0.293-5.031,1.336-5.164,4.926H62.77
			c-0.133-3.59-2.07-4.633-5.164-4.926C56.668,52.111,55.629,52.092,54.5,52.092L54.5,52.092z M54.5,52.092"/>
	</g>
</g>
</svg>
