<svg id="design" xmlns="http://www.w3.org/2000/svg" xmlns:xlink="http://www.w3.org/1999/xlink" viewBox="0 0 56 56"><defs><style>.cls-1{fill:#31dd83;}.cls-2{fill:url(#linear-gradient);}.cls-3{fill:none;stroke:#333;stroke-linecap:round;stroke-linejoin:round;stroke-width:2px;}</style><linearGradient id="linear-gradient" x1="18.36" y1="42.17" x2="18.36" y2="30.65" gradientUnits="userSpaceOnUse"><stop offset="0.04" stop-color="#31dd83"/><stop offset="0.12" stop-color="#31dd83" stop-opacity="0.81"/><stop offset="0.24" stop-color="#31dd83" stop-opacity="0.52"/><stop offset="0.35" stop-color="#31dd83" stop-opacity="0.3"/><stop offset="0.44" stop-color="#31dd83" stop-opacity="0.14"/><stop offset="0.52" stop-color="#31dd83" stop-opacity="0.04"/><stop offset="0.57" stop-color="#31dd83" stop-opacity="0"/></linearGradient></defs><rect class="cls-1" x="22.97" y="9.45" width="33.03" height="17.17" rx="2"/><path class="cls-2" d="M18.36,42.17a4.67,4.67,0,0,1-4.61-4.93V35.59a4.62,4.62,0,1,1,9.22,0v1.65A4.67,4.67,0,0,1,18.36,42.17Z"/><path class="cls-3" d="M18.36,42.17a4.67,4.67,0,0,1-4.61-4.93V35.59a4.62,4.62,0,1,1,9.22,0v1.65A4.67,4.67,0,0,1,18.36,42.17Z"/><path class="cls-3" d="M8,56l2.3-8.07c.7-2.88,2.08-4.6,4.61-4.6h2.31l8,8.06h6.91S32.68,56,28.71,56H21.82l-5.76-4.61"/><polyline class="cls-3" points="26.43 47.94 28.73 44.48 44.16 44.48 40.25 56 34.49 56"/><path class="cls-3" d="M27.52,33H33v5.62a1.15,1.15,0,0,0,2.09.67L39.89,33h5.57a2.31,2.31,0,0,0,2.3-2.31V5.3A2.3,2.3,0,0,0,45.46,3H6.54a2.3,2.3,0,0,0-2.3,2.3V30.65A2.31,2.31,0,0,0,6.54,33H9.7"/><path class="cls-3" d="M39.14,24.54,36.63,22a.7.7,0,0,0-.72-.15,5,5,0,0,1-5.32-1.11A5.41,5.41,0,0,1,29.09,16a.68.68,0,0,1,1.14-.35L32.5,17.9a.66.66,0,0,0,1,0L35.36,16a.67.67,0,0,0,0-1L33.1,12.77a.68.68,0,0,1,.35-1.14,5.37,5.37,0,0,1,4.78,1.49,5,5,0,0,1,1.11,5.33.71.71,0,0,0,.16.72l2.76,2.76"/><path class="cls-3" d="M9.75,10.54h9"/><path class="cls-3" d="M9.75,15.54h5.62"/></svg>